<svg xmlns="http://www.w3.org/2000/svg" xmlns:xlink="http://www.w3.org/1999/xlink" xmlns:lucid="lucid" width="359.97" height="508.86"><g transform="translate(-499.6693242723819 -220)" lucid:page-tab-id="0_0"><path d="M520.36 651.14h119.28v57.72H520.36z" fill="none"/><use xlink:href="#a" transform="matrix(1,0,0,1,520.357025592087,651.1437814701131) translate(27.049999999999997 21.799999999999997)"/><use xlink:href="#b" transform="matrix(1,0,0,1,520.357025592087,651.1437814701131) translate(19.549999999999997 43.4)"/><use xlink:href="#c" transform="matrix(1,0,0,1,520.357025592087,651.1437814701131) translate(52.5 43.4)"/><path d="M620 380c0 22.1-17.9 40-40 40s-40-17.9-40-40 17.9-40 40-40 40 17.9 40 40z" stroke="#000" stroke-width="2" fill="#fff"/><use xlink:href="#d" transform="matrix(1,0,0,1,545,345) translate(18.580246913580247 41.22222222222222)"/><path d="M620 580c0 22.1-17.9 40-40 40s-40-17.9-40-40 17.9-40 40-40 40 17.9 40 40z" stroke="#000" stroke-width="2" fill="#fff"/><use xlink:href="#e" transform="matrix(1,0,0,1,545,545) translate(17.716049382716047 41.22222222222222)"/><path d="M820 380c0 22.1-17.9 40-40 40s-40-17.9-40-40 17.9-40 40-40 40 17.9 40 40z" stroke="#000" stroke-width="2" fill="#fff"/><use xlink:href="#f" transform="matrix(1,0,0,1,745,345) translate(17.716049382716047 41.22222222222222)"/><path d="M820 580c0 22.1-17.9 40-40 40s-40-17.9-40-40 17.9-40 40-40 40 17.9 40 40z" stroke="#000" stroke-width="2" fill="#fff"/><use xlink:href="#g" transform="matrix(1,0,0,1,745,545) translate(17.716049382716047 41.22222222222222)"/><path d="M574.6 638.4l-1.05 1.2-1.76 1.64-2 1.6-2.3 1.52-2.57 1.43-2.9 1.3-3.2 1.12-3.48.9-3.7.66-3.85.35-3.86.02-3.77-.3-3.58-.57-3.33-.82-3.02-1.02-2.73-1.2-1-.52v-2.27l1.87 1 2.57 1.12 2.87.97 3.15.78 3.4.55 3.6.28 3.7-.02 3.68-.33 3.54-.62 3.33-.87 3.04-1.07 2.73-1.23 2.44-1.35 2.14-1.43 1.88-1.5 1.64-1.53 1-1.12zM539.04 581l-2.36.1-2.15.27-2.02.42-1.9.57-1.82.72-1.76.86-1.7 1.03-1.65 1.2-1.62 1.38-1.56 1.6-1.54 1.84-1.46 2.1-1.38 2.38-1.27 2.7-1.1 2.98-.93 3.27-.67 3.5-.4 3.64-.08 3.66.22 3.6.48 3.43.74 3.17.93 2.9.27.65h-.74v3.3l-.26-.5-1.15-2.76-.98-3.06-.78-3.35-.52-3.58-.23-3.77.1-3.84.4-3.8.7-3.67.96-3.44 1.18-3.15 1.35-2.83 1.46-2.53 1.57-2.24 1.63-1.96 1.7-1.72 1.72-1.5 1.8-1.3 1.84-1.1 1.9-.96 1.98-.78 2.08-.62 2.18-.47 2.32-.3 2.44-.1z"/><path d="M540 580l.03.74-.75.22-.56-1.92 1.36-.4zM578.33 639.03l-8.7-3.2 9.26-11.8z"/><path d="M579.27 640.44L568 636.3l12-15.3zm-8-5.07l6.1 2.25.4-10.54z"/><use xlink:href="#h" transform="matrix(1,0,0,1,513.5788911350347,629.0167343918922) translate(0 14.4)"/><path d="M514.44 330.05l-.13.3-.96 2.83-.78 3.12-.57 3.4-.3 3.58v3.7l.3 3.72.62 3.6.86 3.4 1.07 3.1 1.23 2.8 1.35 2.5 1.44 2.2 1.5 1.9 1.54 1.7 1.34 1.2-1.36 1.48-1.38-1.28-1.66-1.8-1.6-2.04-1.53-2.34-1.42-2.64-1.3-2.95-1.12-3.27-.9-3.55-.63-3.75-.33-3.87v-3.88l.3-3.76.6-3.55.82-3.3 1.02-2.97 1.18-2.7.82-1.5zm33.9-20.57l3.8.43 3.7.74 3.45 1 3.16 1.2 2.87 1.36 2.56 1.5 2.25 1.58 1.98 1.65 1.74 1.7 1.5 1.77 1.3 1.8 1.13 1.87.94 1.92.8 1.97.6 2.08.47 2.18.3 2.3.1 2.43-2 .08-.1-2.34-.26-2.14-.43-2.02-.56-1.9-.73-1.84-.86-1.77-1.03-1.72-1.2-1.66-1.4-1.63-1.6-1.6-1.87-1.53-2.12-1.5-2.4-1.4-2.72-1.3-3.02-1.14-3.3-.95-3.52-.7-3.65-.4-3.7-.1-3.58.18-3.4.47-3.16.7-2.88.9-2.58 1.07-2.3 1.17-1.2.74v-2.34l.2-.13 2.46-1.25 2.75-1.12 3.04-.95 3.32-.74 3.57-.5 3.76-.2z"/><path d="M581.36 340.08L580 340l-.74.03-.22-.75 1.92-.56zM535.96 378.88l-15-.57 3.2-8.7z"/><path d="M539 380l-19.44-.75 4.15-11.28zm-16.6-2.64l10.53.4-8.3-6.52z"/><use xlink:href="#i" transform="matrix(1,0,0,1,514.441953364312,308.87470281833663) translate(0 14.4)"/><path d="M673.53 401.6H615.4v-2h58.13zm52.85 0h-39.9v-2h39.9zM615.4 401.6h-1.8l1.25-2h.55zM741.38 400.6l-14.26 4.62v-9.27z"/><path d="M744.62 400.6l-18.5 6v-12.02zm-16.5 3.25l10.03-3.26-10.03-3.27z"/><use xlink:href="#h" transform="matrix(1,0,0,1,673.5348002475246,389.78815039142586) translate(0 14.4)"/><path d="M674.5 360.65h-40.75v-2h40.76zm69.95 0h-59v-2h59zM745 360.65h-.55v-2h1.8zM633.02 364.28l-14.27-4.63 14.27-4.64z"/><path d="M634.02 365.66l-18.5-6 18.5-6.02zm-12.03-6L632 362.9v-6.5z"/><use xlink:href="#i" transform="matrix(1,0,0,1,674.5065329244745,348.8481321791542) translate(0 14.4)"/><path d="M673.5 560.8h-39.66v-2h39.66zm70.85 0h-57.9v-2h57.9zM744.9 560.8h-.55v-2h1.8zM633.1 564.44l-14.26-4.63 14.26-4.63z"/><path d="M634.1 565.82l-18.5-6 18.5-6.03zm-12.03-6l10.03 3.24v-6.5z"/><use xlink:href="#h" transform="matrix(1,0,0,1,673.5007734071265,549.0051531289332) translate(0 14.4)"/><path d="M726.4 599.6v2l-40.86-.05v-2zm-51.8-.07v2l-59.12-.07v-2z"/><path d="M615.5 599.46l-.02 2h-1.8l1.25-2zM741.4 600.62l-14.27 4.6v-9.26z"/><path d="M744.64 600.62l-18.5 6v-12.03zm-16.5 3.24l10.02-3.25-10.02-3.26z"/><use xlink:href="#i" transform="matrix(1,0,0,1,674.5862173619031,589.738694777622) translate(0 14.4)"/><path d="M752.6 549.54l-1.4 1.43-27.07-26.47v-2.8zM713.17 511v2.8l-92.67-90.66 1.4-1.43z"/><path d="M753.33 550.27l-1.45 1.38-.7-.68 1.4-1.43zM623.93 418.6l-6.5 6.63-6.94-13.3z"/><path d="M625.6 418.32l-8.4 8.6-9.03-17.24zm-7.9 5.23l4.55-4.66-9.45-4.7z"/><use xlink:href="#i" transform="matrix(1,0,0,1,713.1756206637956,506.9417413337039) translate(0 14.4)"/><path d="M711.12 451.3l-88.03 88.14-1.43-1.42 89.45-89.54zm41.1-41.15l-28.15 28.2v-2.84l26.75-26.76zM752.74 409.27l.2.17-.7.7-1.42-1.4.73-.73zM625.14 542.52l-13.36 6.82 6.8-13.37z"/><path d="M626.82 542.8l-17.33 8.83 8.82-17.34zm-12.75 4.25l9.4-4.8-4.62-4.6z"/><use xlink:href="#h" transform="matrix(1,0,0,1,711.1228443526411,432.6108880808981) translate(0 14.4)"/><path d="M720.36 651.14h119.28v57.72H720.36z" fill="none"/><use xlink:href="#j" transform="matrix(1,0,0,1,720.357025592087,651.1437814701131) translate(30.725 21.799999999999997)"/><use xlink:href="#b" transform="matrix(1,0,0,1,720.357025592087,651.1437814701131) translate(19.549999999999997 43.4)"/><use xlink:href="#c" transform="matrix(1,0,0,1,720.357025592087,651.1437814701131) translate(52.5 43.4)"/><path d="M530.18 240h99.64v57.7h-99.64z" fill="none"/><g><use xlink:href="#k" transform="matrix(1,0,0,1,530.1785127960435,240) translate(17.049999999999997 21.799999999999997)"/><use xlink:href="#c" transform="matrix(1,0,0,1,530.1785127960435,240) translate(26.025 43.4)"/></g><path d="M730.18 240h99.64v57.7h-99.64z" fill="none"/><g><use xlink:href="#l" transform="matrix(1,0,0,1,730.1785127960435,240) translate(20.725 21.799999999999997)"/><use xlink:href="#c" transform="matrix(1,0,0,1,730.1785127960435,240) translate(26.025 43.4)"/></g><defs><path d="M185-189c-5-48-123-54-124 2 14 75 158 14 163 119 3 78-121 87-175 55-17-10-28-26-33-46l33-7c5 56 141 63 141-1 0-78-155-14-162-118-5-82 145-84 179-34 5 7 8 16 11 25" id="m"/><path d="M59-47c-2 24 18 29 38 22v24C64 9 27 4 27-40v-127H5v-23h24l9-43h21v43h35v23H59v120" id="n"/><path d="M114-163C36-179 61-72 57 0H25l-1-190h30c1 12-1 29 2 39 6-27 23-49 58-41v29" id="o"/><path d="M100-194c62-1 85 37 85 99 1 63-27 99-86 99S16-35 15-95c0-66 28-99 85-99zM99-20c44 1 53-31 53-75 0-43-8-75-51-75s-53 32-53 75 10 74 51 75" id="p"/><path d="M117-194c89-4 53 116 60 194h-32v-121c0-31-8-49-39-48C34-167 62-67 57 0H25l-1-190h30c1 10-1 24 2 32 11-22 29-35 61-36" id="q"/><path d="M177-190C167-65 218 103 67 71c-23-6-38-20-44-43l32-5c15 47 100 32 89-28v-30C133-14 115 1 83 1 29 1 15-40 15-95c0-56 16-97 71-98 29-1 48 16 59 35 1-10 0-23 2-32h30zM94-22c36 0 50-32 50-73 0-42-14-75-50-75-39 0-46 34-46 75s6 73 46 73" id="r"/><path d="M24 0v-261h32V0H24" id="s"/><path d="M179-190L93 31C79 59 56 82 12 73V49c39 6 53-20 64-50L1-190h34L92-34l54-156h33" id="t"/><g id="a"><use transform="matrix(0.05,0,0,0.05,0,0)" xlink:href="#m"/><use transform="matrix(0.05,0,0,0.05,12,0)" xlink:href="#n"/><use transform="matrix(0.05,0,0,0.05,17,0)" xlink:href="#o"/><use transform="matrix(0.05,0,0,0.05,22.95,0)" xlink:href="#p"/><use transform="matrix(0.05,0,0,0.05,32.95,0)" xlink:href="#q"/><use transform="matrix(0.05,0,0,0.05,42.95,0)" xlink:href="#r"/><use transform="matrix(0.05,0,0,0.05,52.95,0)" xlink:href="#s"/><use transform="matrix(0.05,0,0,0.05,56.900000000000006,0)" xlink:href="#t"/></g><path d="M190 0L58-211 59 0H30v-248h39L202-35l-2-213h31V0h-41" id="u"/><g id="b"><use transform="matrix(0.05,0,0,0.05,0,0)" xlink:href="#u"/><use transform="matrix(0.05,0,0,0.05,12.950000000000001,0)" xlink:href="#p"/><use transform="matrix(0.05,0,0,0.05,22.950000000000003,0)" xlink:href="#n"/></g><path d="M127-220V0H93v-220H8v-28h204v28h-85" id="v"/><path d="M141-36C126-15 110 5 73 4 37 3 15-17 15-53c-1-64 63-63 125-63 3-35-9-54-41-54-24 1-41 7-42 31l-33-3c5-37 33-52 76-52 45 0 72 20 72 64v82c-1 20 7 32 28 27v20c-31 9-61-2-59-35zM48-53c0 20 12 33 32 33 41-3 63-29 60-74-43 2-92-5-92 41" id="w"/><path d="M143 0L79-87 56-68V0H24v-261h32v163l83-92h37l-77 82L181 0h-38" id="x"/><path d="M100-194c63 0 86 42 84 106H49c0 40 14 67 53 68 26 1 43-12 49-29l28 8c-11 28-37 45-77 45C44 4 14-33 15-96c1-61 26-98 85-98zm52 81c6-60-76-77-97-28-3 7-6 17-6 28h103" id="y"/><g id="c"><use transform="matrix(0.05,0,0,0.05,0,0)" xlink:href="#v"/><use transform="matrix(0.05,0,0,0.05,8.950000000000001,0)" xlink:href="#w"/><use transform="matrix(0.05,0,0,0.05,18.950000000000003,0)" xlink:href="#x"/><use transform="matrix(0.05,0,0,0.05,27.950000000000003,0)" xlink:href="#y"/><use transform="matrix(0.05,0,0,0.05,37.95,0)" xlink:href="#q"/></g><path d="M23 0v-37h61v-169l-59 37v-38l62-41h46v211h57V0H23" id="z"/><g id="d"><use transform="matrix(0.08641975308641976,0,0,0.08641975308641976,0,0)" xlink:href="#z"/><use transform="matrix(0.08641975308641976,0,0,0.08641975308641976,15.555555555555557,0)" xlink:href="#z"/></g><path d="M101-251c68 0 84 54 84 127C185-50 166 4 99 4S15-52 14-124c-1-75 17-127 87-127zm-1 216c37-5 36-46 36-89s4-89-36-89c-39 0-36 45-36 89 0 43-3 85 36 89" id="A"/><g id="e"><use transform="matrix(0.08641975308641976,0,0,0.08641975308641976,0,0)" xlink:href="#A"/><use transform="matrix(0.08641975308641976,0,0,0.08641975308641976,17.283950617283953,0)" xlink:href="#A"/></g><g id="f"><use transform="matrix(0.08641975308641976,0,0,0.08641975308641976,0,0)" xlink:href="#z"/><use transform="matrix(0.08641975308641976,0,0,0.08641975308641976,17.283950617283953,0)" xlink:href="#A"/></g><g id="g"><use transform="matrix(0.08641975308641976,0,0,0.08641975308641976,0,0)" xlink:href="#A"/><use transform="matrix(0.08641975308641976,0,0,0.08641975308641976,17.283950617283953,0)" xlink:href="#z"/></g><use transform="matrix(0.05,0,0,0.05,0,0)" xlink:href="#u" id="h"/><use transform="matrix(0.05,0,0,0.05,0,0)" xlink:href="#v" id="i"/><path d="M266 0h-40l-56-210L115 0H75L2-248h35L96-30l15-64 43-154h32l59 218 59-218h35" id="B"/><g id="j"><use transform="matrix(0.05,0,0,0.05,0,0)" xlink:href="#B"/><use transform="matrix(0.05,0,0,0.05,16.599999999999998,0)" xlink:href="#y"/><use transform="matrix(0.05,0,0,0.05,26.599999999999994,0)" xlink:href="#w"/><use transform="matrix(0.05,0,0,0.05,36.599999999999994,0)" xlink:href="#x"/><use transform="matrix(0.05,0,0,0.05,45.599999999999994,0)" xlink:href="#s"/><use transform="matrix(0.05,0,0,0.05,49.55,0)" xlink:href="#t"/></g><g id="k"><use transform="matrix(0.05,0,0,0.05,0,0)" xlink:href="#m"/><use transform="matrix(0.05,0,0,0.05,12,0)" xlink:href="#n"/><use transform="matrix(0.05,0,0,0.05,17,0)" xlink:href="#o"/><use transform="matrix(0.05,0,0,0.05,22.95,0)" xlink:href="#p"/><use transform="matrix(0.05,0,0,0.05,32.95,0)" xlink:href="#q"/><use transform="matrix(0.05,0,0,0.05,42.95,0)" xlink:href="#r"/><use transform="matrix(0.05,0,0,0.05,52.95,0)" xlink:href="#s"/><use transform="matrix(0.05,0,0,0.05,56.900000000000006,0)" xlink:href="#t"/></g><g id="l"><use transform="matrix(0.05,0,0,0.05,0,0)" xlink:href="#B"/><use transform="matrix(0.05,0,0,0.05,16.599999999999998,0)" xlink:href="#y"/><use transform="matrix(0.05,0,0,0.05,26.599999999999994,0)" xlink:href="#w"/><use transform="matrix(0.05,0,0,0.05,36.599999999999994,0)" xlink:href="#x"/><use transform="matrix(0.05,0,0,0.05,45.599999999999994,0)" xlink:href="#s"/><use transform="matrix(0.05,0,0,0.05,49.55,0)" xlink:href="#t"/></g></defs></g></svg>