<svg xmlns="http://www.w3.org/2000/svg" xmlns:xlink="http://www.w3.org/1999/xlink" xmlns:lucid="lucid" width="1970.56" height="1162"><g transform="translate(-129.44276864952582 -1419)" lucid:page-tab-id="0_0"><path d="M560 2560V1440M960 2560V1440" stroke="#c92d39" stroke-width="4" fill="none"/><path d="M1362 2560h-4v-652.2h4zm0-673.8h-4V1440h4z" fill="#c92d39"/><path d="M1760 2560V1440" stroke="#c92d39" stroke-width="4" fill="none"/><path d="M242.6 1440h240v60h-240z" stroke="#000" stroke-opacity="0" stroke-width="2" fill="#fff" fill-opacity="0"/><use xlink:href="#a" transform="matrix(1,0,0,1,247.58571868267177,1445) translate(96.89506172839506 31.22222222222222)"/><path d="M640 1440h240v60H640z" stroke="#000" stroke-opacity="0" stroke-width="2" fill="#fff" fill-opacity="0"/><use xlink:href="#b" transform="matrix(1,0,0,1,645,1445) translate(96.89506172839506 31.22222222222222)"/><path d="M1040 1440h240v60h-240z" stroke="#000" stroke-opacity="0" stroke-width="2" fill="#fff" fill-opacity="0"/><use xlink:href="#c" transform="matrix(1,0,0,1,1045,1445) translate(96.89506172839506 31.22222222222222)"/><path d="M1440 1440h240v60h-240z" stroke="#000" stroke-opacity="0" stroke-width="2" fill="#fff" fill-opacity="0"/><use xlink:href="#d" transform="matrix(1,0,0,1,1445,1445) translate(96.89506172839506 31.22222222222222)"/><path d="M1840 1440h240v60h-240z" stroke="#000" stroke-opacity="0" stroke-width="2" fill="#fff" fill-opacity="0"/><use xlink:href="#e" transform="matrix(1,0,0,1,1845,1445) translate(96.89506172839506 31.22222222222222)"/><path d="M1490 1862.7h140v68.63h-140z" stroke="#000" stroke-width="2" fill="#fff"/><use xlink:href="#f" transform="matrix(1,0,0,1,1495,1867.6851501322044) translate(5.216049382716037 33.94444444444444)"/><use xlink:href="#g" transform="matrix(1,0,0,1,1495,1867.6851501322044) translate(42.19135802469135 33.94444444444444)"/><path d="M1784.22 1576.8h20v80h-20zM1744.22 1576.8h20v80h-20zM1724.22 1576.8h20v80h-20zM1764.22 1576.8h20v80h-20z" stroke="#3d4752" stroke-width="4" fill="#fff" filter="url(#h)"/><path d="M1704.22 1576.8l18-.1" stroke="#494949" stroke-width="4" fill="none"/><path d="M1725.22 1576.8h-1v1.9h-2v-4h3z" fill="#494949"/><path d="M1722.22 1656.8h-18" stroke="#494949" stroke-width="4" fill="none"/><path d="M1724.22 1656.8h1v2h-3v-4h2z" fill="#494949"/><path d="M1784.22 2031.74h20v92.64h-20zM1744.22 2031.74h20v92.64h-20zM1724.22 2031.74h20v92.64h-20zM1764.22 2031.74h20v92.64h-20z" stroke="#3d4752" stroke-width="4" fill="#fff" filter="url(#i)"/><path d="M1704.22 2031.74l18-.1" stroke="#494949" stroke-width="4" fill="none"/><path d="M1725.22 2031.74h-1v1.88h-2v-4h3z" fill="#494949"/><path d="M1722.22 2124.38h-18" stroke="#494949" stroke-width="4" fill="none"/><path d="M1724.22 2124.38h1v2h-3v-4h2z" fill="#494949"/><path d="M1384.22 1576.8h20v80h-20zM1344.22 1576.8h20v80h-20zM1324.22 1576.8h20v80h-20zM1364.22 1576.8h20v80h-20z" stroke="#3d4752" stroke-width="4" fill="#fff" filter="url(#h)"/><path d="M1304.22 1576.8l18-.1" stroke="#494949" stroke-width="4" fill="none"/><path d="M1325.22 1576.8h-1v1.9h-2v-4h3z" fill="#494949"/><path d="M1322.22 1656.8h-18" stroke="#494949" stroke-width="4" fill="none"/><path d="M1324.22 1656.8h1v2h-3v-4h2z" fill="#494949"/><path d="M1384.22 2031.13h20v91.06h-20zM1344.22 2031.13h20v91.06h-20zM1324.22 2031.13h20v91.06h-20zM1364.22 2031.13h20v91.06h-20z" stroke="#3d4752" stroke-width="4" fill="#fff" filter="url(#j)"/><path d="M1304.22 2031.13l18-.1" stroke="#494949" stroke-width="4" fill="none"/><path d="M1325.22 2031.13h-1v1.88l-2 .02v-4h3z" fill="#494949"/><path d="M1322.22 2122.2h-18" stroke="#494949" stroke-width="4" fill="none"/><path d="M1324.22 2122.2h1v2h-3v-4h2z" fill="#494949"/><path d="M501 1875.78h29.5v2H499V1653.8h-12.3v-2H501zm-76.4-221.98v-2h37.16v2zM424.6 1653.8h-2v-2h2zM545.5 1876.78l-14.26 4.64v-9.27z"/><path d="M548.74 1876.78l-18.5 6.02v-12.03zm-16.5 3.26l10.03-3.26-10.03-3.25z"/><path d="M550.74 1842.4h20v68.76h-20z" stroke="#3d4752" stroke-width="4" fill="#fff" filter="url(#k)"/><path d="M554.68 1911.16h12.13l-6.06-11.46z" stroke="#3d4752" stroke-width="4" fill="#fff" filter="url(#l)"/><path d="M1461 2049h220.76v2H1459v-433.2h-52.78v-2H1461zM1406.22 1617.8h-2v-2h2zM1696.76 2050l-14.26 4.64v-9.28z"/><path d="M1700 2050l-18.5 6v-12zm-16.5 3.26l10.03-3.26-10.03-3.26zM1500.64 1617.8h-94.42v-2h94.42zm181.12-16.8h-76.17v-2h76.16zM1406.22 1617.8h-2v-2h2zM1696.76 1600l-14.26 4.64v-9.28z"/><path d="M1700 1600l-18.5 6v-12zm-16.5 3.26l10.03-3.26-10.03-3.26z"/><use xlink:href="#m" transform="matrix(1,0,0,1,1500.636111111111,1597.601132514111) translate(0 14.4)"/><use xlink:href="#n" transform="matrix(1,0,0,1,1500.636111111111,1597.601132514111) translate(49.95 14.4)"/><path d="M266.6 2317.45c-13.27 0-24-7.8-24-17.45 0-7.7 6.48-14.2 16.57-16.6-.58-22.66 39.42-27.03 55.42-18.3 8-13.1 48-8.73 48 4.36 24-4.36 48 13.1 32 34.9 16 17.45 0 39.27-32 30.54-8 11.34-40 11.34-48 0-16 8.73-48 4.36-48-17.45z" stroke="#000" stroke-width="2" fill="#fff"/><use xlink:href="#o" transform="matrix(1,0,0,1,247.58571868267177,2261.3735705359177) translate(7.839506172839506 43.44444444444444)"/><use xlink:href="#p" transform="matrix(1,0,0,1,247.58571868267177,2261.3735705359177) translate(60.80246913580247 43.44444444444444)"/><path d="M281.02 2243.37h-2V2212h2zM501 2081H281.02v109.4h-2V2079H499v-425.2h-12.3v-2H501zm-76.4-427.2v-2h37.16v2zM424.6 1653.8h-2v-2h2zM280.02 2258.37l-4.64-14.26h9.27z"/><path d="M280.02 2261.6l-6-18.5h12zm-3.26-16.5l3.26 10.04 3.26-10.03z"/><use xlink:href="#q" transform="matrix(1,0,0,1,267.54316344760946,2190.3934901708963) translate(0 14.4)"/><path d="M542.92 2240h1241.3v120H542.92z" stroke="#000" stroke-width="2" fill="#fff"/><use xlink:href="#r" transform="matrix(1,0,0,1,547.9247933894046,2245) translate(420.78395061728395 59.44444444444444)"/><use xlink:href="#s" transform="matrix(1,0,0,1,547.9247933894046,2245) translate(505.9074074074074 59.44444444444444)"/><use xlink:href="#t" transform="matrix(1,0,0,1,547.9247933894046,2245) translate(600.783950617284 59.44444444444444)"/><use xlink:href="#u" transform="matrix(1,0,0,1,547.9247933894046,2245) translate(679.2407407407406 59.44444444444444)"/><use xlink:href="#v" transform="matrix(1,0,0,1,547.9247933894046,2245) translate(768.0679012345679 59.44444444444444)"/><path d="M282.8 2399h832.25v2H280.8v-44.96h2zm1543.42 2h-622.37v-2h620.37v-98h-39v-2h41z"/><path d="M1785.22 2301h-1v-2h1zM286.44 2355.3h-9.27l4.63-14.26z"/><path d="M287.8 2356.3h-12l6-18.5zm-9.26-2h6.52l-3.26-10.02z"/><use xlink:href="#w" transform="matrix(1,0,0,1,1115.0489354656665,2389.2) translate(0 14.4)"/><use xlink:href="#x" transform="matrix(1,0,0,1,1115.0489354656665,2389.2) translate(32.95 14.4)"/><path d="M414.2 2301h-15.86v-2h15.86zm109.5 0h-12.75v-2h12.74zM398.34 2301h-1.63l1.03-2h.6zM538.7 2300l-14.28 4.64v-9.28z"/><path d="M541.92 2300l-18.5 6v-12zm-16.5 3.26l10.03-3.26-10.03-3.26z"/><use xlink:href="#y" transform="matrix(1,0,0,1,414.20306748674255,2289.2) translate(0 14.4)"/><use xlink:href="#x" transform="matrix(1,0,0,1,414.20306748674255,2289.2) translate(40.900000000000006 14.4)"/><path d="M542.92 1936.56H981.2v278.47H542.9z" stroke="#000" stroke-width="2" fill="#fff"/><path d="M578.97 2023.18h160v138.73h-160z" stroke="#3d4752" stroke-width="4" fill="#fff" filter="url(#z)"/><path d="M594.16 2092.63h129.62v31.75H594.16zM594.16 2060.88h129.62v31.75H594.16z" stroke="#3d4752" stroke-width="4" fill="#fff"/><path d="M594.16 2124.25h129.62V2156H594.16zM594.16 2029.12h129.62v31.76H594.16z" stroke="#3d4752" stroke-width="4" fill="#fff"/><path d="M773.54 2023.18h60.3v138.73h-60.3z" stroke="#3d4752" stroke-width="4" fill="#fff" filter="url(#A)"/><path d="M779.26 2092.63h48.84v31.75h-48.84zM779.26 2060.88h48.84v31.75h-48.84z" stroke="#3d4752" stroke-width="4" fill="#fff"/><path d="M779.26 2124.25h48.84V2156h-48.84zM779.26 2029.12h48.84v31.76h-48.84z" stroke="#3d4752" stroke-width="4" fill="#fff"/><path d="M773.54 1995.58h60.3v20h-60.3z" fill="none"/><use xlink:href="#B" transform="matrix(1,0,0,1,773.5373603398195,1995.5783141348534) translate(10.777777777777779 17.77777777777778)"/><path d="M731.9 1948.03h60.3v20h-60.3z" fill="none"/><use xlink:href="#C" transform="matrix(1,0,0,1,731.9110749170937,1948.0282344488237) translate(8.925925925925931 17.77777777777778)"/><path d="M578.97 1995.58h160v20h-160z" fill="none"/><use xlink:href="#D" transform="matrix(1,0,0,1,578.9710370966324,1995.5783141348534) translate(1.6975308641975317 17.77777777777778)"/><path d="M877.63 1993.08h55.8v209.72h-55.8z" stroke="#3d4752" stroke-width="4" fill="#fff" filter="url(#E)"/><path d="M882.92 2147.87h45.2v25h-45.2z" stroke="#3d4752" stroke-width="4" fill="#fff"/><path d="M882.92 2122.88h45.2v25h-45.2zM882.92 2172.76h45.2v25h-45.2zM882.92 2097.9h45.2v24.98h-45.2zM882.92 2048.12h45.2v25h-45.2z" stroke="#3d4752" stroke-width="4" fill="#fff"/><path d="M882.92 2023.13h45.2v25h-45.2zM882.92 2073h45.2v25h-45.2z" stroke="#3d4752" stroke-width="4" fill="#fff"/><path d="M882.92 1998.14h45.2v25h-45.2z" stroke="#3d4752" stroke-width="4" fill="#fff"/><path d="M875.38 1968.03h60.3v20h-60.3z" fill="none"/><use xlink:href="#F" transform="matrix(1,0,0,1,875.3826085723367,1968.0282344488237) translate(7.691358024691361 17.77777777777778)"/><path d="M1056.05 2076.8H982.2v-2h73.85zm225.7 0H1098v-2h183.76zM982.2 2076.8h-1v-2h1zM1296.76 2075.8l-14.26 4.63v-9.27z"/><path d="M1300 2075.8l-18.5 6v-12.02zm-16.5 3.25l10.03-3.26-10.03-3.27z"/><use xlink:href="#G" transform="matrix(1,0,0,1,1056.0486556932206,2064.9938719229567) translate(0 14.4)"/><path d="M1325.55 1898h-47.3v-2h47.3zm163.45 0h-65.55v-2H1489zM1490 1898h-1v-2h1zM1277.5 1901.64l-14.26-4.63 14.26-4.63z"/><path d="M1278.5 1903.02l-18.5-6 18.5-6.02zm-12.03-6l10.03 3.25v-6.52z"/><use xlink:href="#H" transform="matrix(1,0,0,1,1325.55,1886.2088495097053) translate(0 14.4)"/><use xlink:href="#I" transform="matrix(1,0,0,1,1325.55,1886.2088495097053) translate(39.95 14.4)"/><path d="M1561 2170.5h-.1v68.5h-2v-70.5h.1v-.48h2zm120.76-69.5H1561v45.42h-2V2099h122.76zM1560.9 2240h-2v-1h2zM1696.76 2100l-14.26 4.64v-9.28z"/><path d="M1700 2100l-18.5 6v-12zm-16.5 3.26l10.03-3.26-10.03-3.26z"/><use xlink:href="#G" transform="matrix(1,0,0,1,1539.025,2146.423280460649) translate(0 14.4)"/><path d="M1406.22 2076.66h275.54" stroke="#000" stroke-width="2" fill="none"/><path d="M1406.22 2077.66h-2v-2h2z"/><path d="M1696.76 2076.66l-14.26 4.64v-9.27z" stroke="#000" stroke-width="2"/><path d="M1490 1754.76h140v68.64h-140z" stroke="#000" stroke-width="2" fill="#fff"/><use xlink:href="#f" transform="matrix(1,0,0,1,1495,1759.7556452817316) translate(8.271604938271608 33.94444444444444)"/><use xlink:href="#J" transform="matrix(1,0,0,1,1495,1759.7556452817316) translate(45.24691358024692 33.94444444444444)"/><path d="M1560 1824.4v19.05" stroke="#000" stroke-width="2" fill="none"/><path d="M1561 1824.4h-2v-1h2z"/><path d="M1560 1858.45l-4.64-14.27h9.28z" stroke="#000" stroke-width="2"/><path d="M1561 2240h-2v-71.98h2zm0-93.58h-2v-195.85h2zM1564.64 1949.83h-9.28l4.64-14.26z"/><path d="M1566 1950.83h-12l6-18.5zm-9.26-2h6.52l-3.26-10.03z"/><path d="M1406.22 2076.66h133.75v-126.1" stroke="#000" stroke-width="2" fill="none"/><path d="M1406.22 2077.66h-2v-2h2z"/><path d="M1539.97 1935.57l4.64 14.26h-9.26z" stroke="#000" stroke-width="2"/><path d="M1461 1719h100v16.52h-2V1721h-100v-103.2h-52.78v-2H1461zM1406.22 1617.8h-2v-2h2zM1560 1750.52l-4.64-14.27h9.28z"/><path d="M1560 1753.76l-6-18.5h12zm-3.26-16.5l3.26 10.02 3.26-10.03zM1560.9 2239h-2v-70.98h2zm120.86-598H1671v380h-110.1v125.42h-2V2019H1669v-380h12.76zM1560.9 2240h-2v-1h2zM1696.76 1640l-14.26 4.64v-9.28z"/><path d="M1700 1640l-18.5 6v-12zm-16.5 3.26l10.03-3.26-10.03-3.26zM1681.76 1621H1651v380h-110v76.66h-134.78v-2H1539V1999h110v-380h32.76zM1406.22 2077.66h-2v-2h2zM1696.76 1620l-14.26 4.64v-9.28z"/><path d="M1700 1620l-18.5 6v-12zm-16.5 3.26l10.03-3.26-10.03-3.26z"/><path d="M540.87 1576.8h438.26v152H540.87z" stroke="#3d4752" stroke-width="4" fill="#fff" filter="url(#K)"/><path d="M550.74 1652.9h418.52v34.8H550.74zM550.74 1618.1h418.52v34.8H550.74z" stroke="#3d4752" stroke-width="4" fill="#fff"/><path d="M550.74 1687.54h418.52v34.8H550.74zM550.74 1583.3h418.52v34.8H550.74z" stroke="#3d4752" stroke-width="4" fill="#fff"/><path d="M843.95 1784.2h134.3v116.3h-134.3z" stroke="#3d4752" stroke-width="4" fill="#fff" filter="url(#L)"/><path d="M853.5 1842.4H968.7v26.63H853.5zM853.5 1815.8H968.7v26.6H853.5z" stroke="#3d4752" stroke-width="4" fill="#fff"/><path d="M853.5 1868.9H968.7v26.63H853.5zM853.5 1789.17H968.7v26.62H853.5z" stroke="#3d4752" stroke-width="4" fill="#fff"/><path d="M631.4 1877.78h-58.66v-2h58.66zm192.32-34.43H801v34.43H656.35v-2H799v-34.43h24.72zM572.74 1877.78h-2v-2h2zM838.72 1842.35l-14.27 4.63v-9.27z"/><path d="M841.95 1842.35l-18.5 6v-12zm-16.5 3.26l10.03-3.25-10.03-3.26z"/><use xlink:href="#q" transform="matrix(1,0,0,1,631.3985398675567,1865.9849276226882) translate(0 14.4)"/><path d="M841.1 1746.7h140v37.5h-140z" fill="none"/><use xlink:href="#M" transform="matrix(1,0,0,1,841.1073129289948,1746.7120640227845) translate(49.660493827160494 23.444444444444443)"/><path d="M686.92 1539.3h140v37.5h-140z" fill="none"/><use xlink:href="#N" transform="matrix(1,0,0,1,686.9174826684471,1539.3119730432377) translate(60.74074074074074 23.444444444444443)"/><path d="M1141.57 1653.8H981.13v-2h158.44v-4.6h2zm140.2-32.8h-140.2v4.6h-2v-6.6h142.2zM981.13 1653.8h-2v-2h2zM1296.76 1620l-14.26 4.64v-9.28z"/><path d="M1300 1620l-18.5 6v-12zm-16.5 3.26l10.03-3.26-10.03-3.26z"/><use xlink:href="#G" transform="matrix(1,0,0,1,1119.5902176086956,1625.601132514111) translate(0 14.4)"/><path d="M1022.13 1843.35h-41.87v-2h39.87v-59.3h2zm0-82.9h-2v-60.17h-20.76v-2h22.76zM980.26 1843.35h-2v-2h2zM998.63 1703.9l-14.26-4.62 14.26-4.64z"/><path d="M999.63 1705.3l-18.5-6.02 18.5-6zm-12.03-6.02l10.03 3.26v-6.52z"/><use xlink:href="#G" transform="matrix(1,0,0,1,1000.1554352173913,1760.4477000075556) translate(0 14.4)"/><path d="M402.6 1609.36l20 21.72v43.44l-20 21.72z" stroke="#3d4752" stroke-width="4" fill="#fff" filter="url(#O)"/><path d="M461.76 1653.8H424.6v-2h37.16zm58.87 0H486.7v-2h33.93zM424.6 1653.8h-2v-2h2zM535.63 1652.8l-14.26 4.64v-9.27z"/><path d="M538.87 1652.8l-18.5 6v-12zm-16.5 3.26l10.03-3.26-10.03-3.26z"/><use xlink:href="#q" transform="matrix(1,0,0,1,461.7615193454052,1642.0022650282224) translate(0 14.4)"/><path d="M1750 1815.8h20v115.53h-20z" stroke="#3d4752" stroke-width="4" fill="#fff" filter="url(#P)"/><path d="M1753.94 1931.33h12.12l-6.06-19.26z" stroke="#3d4752" stroke-width="4" fill="#fff" filter="url(#Q)"/><path d="M1631 1873.65h98.76" stroke="#000" stroke-width="2" fill="none"/><path d="M1631 1874.65h-1v-2h1z"/><path d="M1744.76 1873.65l-14.26 4.64V1869z" stroke="#000" stroke-width="2"/><path d="M382.35 1620.88h-39.2v-2h39.2zM397.35 1619.88l-14.27 4.64v-9.27z"/><path d="M400.6 1619.88l-18.52 6v-12zm-16.52 3.26l10.03-3.26-10.02-3.26z"/><use xlink:href="#R" transform="matrix(1,0,0,1,140.44276864952582,1609.2) translate(0 14.4)"/><use xlink:href="#S" transform="matrix(1,0,0,1,140.44276864952582,1609.2) translate(80.95 14.4)"/><use xlink:href="#T" transform="matrix(1,0,0,1,140.44276864952582,1609.2) translate(152.8 14.4)"/><path d="M1631 1789.08h58.5V1840h40.26" stroke="#000" stroke-width="2" fill="none"/><path d="M1631 1790.08h-1v-2h1z"/><path d="M1744.76 1840l-14.26 4.64v-9.28z" stroke="#000" stroke-width="2"/><path d="M1560.9 2239h-2v-70.98h2zm168.86-338H1671v120h-110.1v125.42h-2V2019H1669v-120h60.76zM1744.76 1900l-14.26 4.63v-9.27z"/><path d="M1748 1900l-18.5 6V1894zm-16.5 3.25l10.03-3.25-10.03-3.26zM1560.9 2240h-2v-1h2z"/><path d="M1844 1891c-13.25 0-24-7.8-24-17.44 0-7.7 6.5-14.2 16.58-16.6-.58-22.66 39.42-27.03 55.42-18.3 8-13.1 48-8.73 48 4.36 24-4.36 48 13.1 32 34.9 16 17.45 0 39.27-32 30.54-8 11.34-40 11.34-48 0-16 8.73-48 4.36-48-17.45z" stroke="#000" stroke-width="2" fill="#fff"/><use xlink:href="#U" transform="matrix(1,0,0,1,1825,1834.933139411028) translate(4.135802469135797 43.44444444444444)"/><use xlink:href="#V" transform="matrix(1,0,0,1,1825,1834.933139411028) translate(92.83950617283949 43.44444444444444)"/><path d="M1772 1873.56h28.76" stroke="#000" stroke-width="2" fill="none"/><path d="M1772 1874.56h-2v-2h2z"/><path d="M1815.76 1873.56l-14.26 4.63v-9.28z" stroke="#000" stroke-width="2"/><path d="M1806.22 2078.06h53V1929.6" stroke="#000" stroke-width="2" fill="none"/><path d="M1806.22 2079.06h-2v-2h2z"/><path d="M1859.22 1914.6l4.63 14.27h-9.27z" stroke="#000" stroke-width="2"/><path d="M1858.43 1816.93h-2v-13.17h2zm0-34.77h-2V1760h2zM1857.43 1831.93l-4.63-14.26h9.27z"/><path d="M1857.43 1835.17l-6-18.5h12zm-3.26-16.5l3.26 10.03 3.26-10.03z"/><use xlink:href="#W" transform="matrix(1,0,0,1,1815.4824447649373,1782.158869799947) translate(0 14.4)"/><use xlink:href="#X" transform="matrix(1,0,0,1,1815.4824447649373,1782.158869799947) translate(49.95 14.4)"/><path d="M382.35 1653.8H211V2429h1803.75v-554.44h-39v-2h41V2431H209v-779.2h173.35z"/><path d="M1975.75 1874.56h-1.63l1.02-2h.6zM397.35 1652.8l-14.27 4.64v-9.27z"/><path d="M400.6 1652.8l-18.52 6v-12zm-16.52 3.26l10.03-3.26-10.02-3.26z"/><path d="M686.34 1816.15c-8.5 0-15.4-6.12-15.4-13.67 0-6.04 4.18-11.14 10.64-13-.37-17.77 25.28-21.18 35.54-14.35 5.12-10.25 30.77-6.83 30.77 3.42 15.38-3.42 30.77 10.25 20.5 27.34 10.27 13.67 0 30.76-20.5 23.92-5.14 8.9-25.66 8.9-30.78 0-10.26 6.84-30.78 3.42-30.78-13.67z" stroke="#000" stroke-width="2" fill="#fff"/><use xlink:href="#Y" transform="matrix(1,0,0,1,675.9516416572015,1773.296969157333) translate(3.5749999999999957 33.1)"/><use xlink:href="#Z" transform="matrix(1,0,0,1,675.9516416572015,1773.296969157333) translate(46.475 33.1)"/><path d="M631.4 1877.78h-58.66v-2h58.66zm102.33 0h-77.38v-2h75.38v-20.15h2zM572.74 1877.78h-2v-2h2zM737.36 1854.9h-9.27l4.63-14.27z"/><path d="M738.74 1855.9H726.7l6.03-18.5zm-9.27-2h6.5l-3.24-10.03z"/><path d="M669.94 1802.48H360.6V1679.6h21.75" stroke="#000" stroke-width="2" fill="none"/><path d="M670.95 1802.48l.13 1h-1.14v-2h1.14z"/><path d="M397.35 1679.6l-14.27 4.65v-9.27z" stroke="#000" stroke-width="2"/><path d="M501 2074.8h22.7v2H499v-423h-12.3v-2H501zm-76.4-421v-2h37.16v2zM424.6 1653.8h-2v-2h2zM538.7 2075.8l-14.28 4.63v-9.27z"/><path d="M541.92 2075.8l-18.5 6v-12.02zm-16.5 3.25l10.03-3.26-10.03-3.27z"/><path d="M1280 1959.86h160v63.32h-160z" stroke="#000" stroke-opacity="0" stroke-width="2" fill="#fff"/><g><use xlink:href="#aa" transform="matrix(1,0,0,1,1285,1964.8606199026467) translate(0.3703703703703667 18.111111111111114)"/><use xlink:href="#ab" transform="matrix(1,0,0,1,1285,1964.8606199026467) translate(49.69135802469135 18.111111111111114)"/><use xlink:href="#ac" transform="matrix(1,0,0,1,1285,1964.8606199026467) translate(41.66666666666667 44.777777777777786)"/></g><path d="M1280 1480h160v90h-160z" stroke="#000" stroke-opacity="0" stroke-width="2" fill="#fff"/><g><use xlink:href="#ad" transform="matrix(1,0,0,1,1285,1485) translate(47.283950617283956 17.77777777777778)"/><use xlink:href="#ab" transform="matrix(1,0,0,1,1285,1485) translate(25.03086419753086 44.44444444444444)"/><use xlink:href="#ac" transform="matrix(1,0,0,1,1285,1485) translate(41.66666666666667 71.11111111111111)"/></g><path d="M1680 1527.44h160V1570h-160z" stroke="#000" stroke-opacity="0" stroke-width="2" fill="#fff"/><g><use xlink:href="#ae" transform="matrix(1,0,0,1,1685,1532.441310655151) translate(14.78395061728395 20.944444444444443)"/><use xlink:href="#af" transform="matrix(1,0,0,1,1685,1532.441310655151) translate(76.45061728395062 20.944444444444443)"/></g><path d="M1680 1959.86h160v63.33h-160z" stroke="#000" stroke-opacity="0" stroke-width="2" fill="#fff"/><g><use xlink:href="#ae" transform="matrix(1,0,0,1,1685,1964.8606199026467) translate(13.364197530864196 18.111111111111114)"/><use xlink:href="#ag" transform="matrix(1,0,0,1,1685,1964.8606199026467) translate(75.03086419753086 18.111111111111114)"/><use xlink:href="#ac" transform="matrix(1,0,0,1,1685,1964.8606199026467) translate(41.66666666666667 44.777777777777786)"/></g><defs><path fill="#c92d39" d="M63-220v92h138v28H63V0H30v-248h175v28H63" id="ah"/><path fill="#c92d39" d="M101-251c68 0 85 55 85 127S166 4 100 4C33 4 14-52 14-124c0-73 17-127 87-127zm-1 229c47 0 54-49 54-102s-4-102-53-102c-51 0-55 48-55 102 0 53 5 102 54 102" id="ai"/><g id="a"><use transform="matrix(0.08641975308641976,0,0,0.08641975308641976,0,0)" xlink:href="#ah"/><use transform="matrix(0.08641975308641976,0,0,0.08641975308641976,18.925925925925927,0)" xlink:href="#ai"/></g><path fill="#c92d39" d="M27 0v-27h64v-190l-56 39v-29l58-41h29v221h61V0H27" id="aj"/><g id="b"><use transform="matrix(0.08641975308641976,0,0,0.08641975308641976,0,0)" xlink:href="#ah"/><use transform="matrix(0.08641975308641976,0,0,0.08641975308641976,18.925925925925927,0)" xlink:href="#aj"/></g><path fill="#c92d39" d="M101-251c82-7 93 87 43 132L82-64C71-53 59-42 53-27h129V0H18c2-99 128-94 128-182 0-28-16-43-45-43s-46 15-49 41l-32-3c6-41 34-60 81-64" id="ak"/><g id="c"><use transform="matrix(0.08641975308641976,0,0,0.08641975308641976,0,0)" xlink:href="#ah"/><use transform="matrix(0.08641975308641976,0,0,0.08641975308641976,18.925925925925927,0)" xlink:href="#ak"/></g><path fill="#c92d39" d="M126-127c33 6 58 20 58 59 0 88-139 92-164 29-3-8-5-16-6-25l32-3c6 27 21 44 54 44 32 0 52-15 52-46 0-38-36-46-79-43v-28c39 1 72-4 72-42 0-27-17-43-46-43-28 0-47 15-49 41l-32-3c6-42 35-63 81-64 48-1 79 21 79 65 0 36-21 52-52 59" id="al"/><g id="d"><use transform="matrix(0.08641975308641976,0,0,0.08641975308641976,0,0)" xlink:href="#ah"/><use transform="matrix(0.08641975308641976,0,0,0.08641975308641976,18.925925925925927,0)" xlink:href="#al"/></g><path fill="#c92d39" d="M155-56V0h-30v-56H8v-25l114-167h33v167h35v25h-35zm-30-156c-27 46-58 90-88 131h88v-131" id="am"/><g id="e"><use transform="matrix(0.08641975308641976,0,0,0.08641975308641976,0,0)" xlink:href="#ah"/><use transform="matrix(0.08641975308641976,0,0,0.08641975308641976,18.925925925925927,0)" xlink:href="#am"/></g><path d="M160-131c35 5 61 23 61 61C221 17 115-2 30 0v-248c76 3 177-17 177 60 0 33-19 50-47 57zm-97-11c50-1 110 9 110-42 0-47-63-36-110-37v79zm0 115c55-2 124 14 124-45 0-56-70-42-124-44v89" id="an"/><path d="M233-177c-1 41-23 64-60 70L243 0h-38l-65-103H63V0H30v-248c88 3 205-21 203 71zM63-129c60-2 137 13 137-47 0-61-80-42-137-45v92" id="ao"/><g id="f"><use transform="matrix(0.06172839506172839,0,0,0.06172839506172839,0,0)" xlink:href="#an"/><use transform="matrix(0.06172839506172839,0,0,0.06172839506172839,14.814814814814813,0)" xlink:href="#ao"/></g><path d="M212-179c-10-28-35-45-73-45-59 0-87 40-87 99 0 60 29 101 89 101 43 0 62-24 78-52l27 14C228-24 195 4 139 4 59 4 22-46 18-125c-6-104 99-153 187-111 19 9 31 26 39 46" id="ap"/><path d="M106-169C34-169 62-67 57 0H25v-261h32l-1 103c12-21 28-36 61-36 89 0 53 116 60 194h-32v-121c2-32-8-49-39-48" id="aq"/><path d="M100-194c63 0 86 42 84 106H49c0 40 14 67 53 68 26 1 43-12 49-29l28 8c-11 28-37 45-77 45C44 4 14-33 15-96c1-61 26-98 85-98zm52 81c6-60-76-77-97-28-3 7-6 17-6 28h103" id="ar"/><path d="M96-169c-40 0-48 33-48 73s9 75 48 75c24 0 41-14 43-38l32 2c-6 37-31 61-74 61-59 0-76-41-82-99-10-93 101-131 147-64 4 7 5 14 7 22l-32 3c-4-21-16-35-41-35" id="as"/><path d="M143 0L79-87 56-68V0H24v-261h32v163l83-92h37l-77 82L181 0h-38" id="at"/><path d="M114-163C36-179 61-72 57 0H25l-1-190h30c1 12-1 29 2 39 6-27 23-49 58-41v29" id="au"/><g id="g"><use transform="matrix(0.06172839506172839,0,0,0.06172839506172839,0,0)" xlink:href="#ap"/><use transform="matrix(0.06172839506172839,0,0,0.06172839506172839,15.987654320987653,0)" xlink:href="#aq"/><use transform="matrix(0.06172839506172839,0,0,0.06172839506172839,28.333333333333332,0)" xlink:href="#ar"/><use transform="matrix(0.06172839506172839,0,0,0.06172839506172839,40.67901234567901,0)" xlink:href="#as"/><use transform="matrix(0.06172839506172839,0,0,0.06172839506172839,51.79012345679013,0)" xlink:href="#at"/><use transform="matrix(0.06172839506172839,0,0,0.06172839506172839,62.90123456790124,0)" xlink:href="#ar"/><use transform="matrix(0.06172839506172839,0,0,0.06172839506172839,75.24691358024693,0)" xlink:href="#au"/></g><filter id="h" filterUnits="objectBoundingBox" x="-.5" y="-.05" width="2" height="1.25"><feOffset result="offOut" in="SourceAlpha" dy="6"/><feGaussianBlur result="blurOut" in="offOut" stdDeviation="5"/><feColorMatrix result="colorOut" in="blurOut" values="0 0 0 0 0 0 0 0 0 0 0 0 0 0 0 0 0 0 0.16862745098039217 0"/><feBlend in="SourceGraphic" in2="colorOut"/></filter><filter id="i" filterUnits="objectBoundingBox" x="-.5" y="-.04" width="2" height="1.22"><feOffset result="offOut" in="SourceAlpha" dy="6"/><feGaussianBlur result="blurOut" in="offOut" stdDeviation="5"/><feColorMatrix result="colorOut" in="blurOut" values="0 0 0 0 0 0 0 0 0 0 0 0 0 0 0 0 0 0 0.16862745098039217 0"/><feBlend in="SourceGraphic" in2="colorOut"/></filter><filter id="j" filterUnits="objectBoundingBox" x="-.5" y="-.04" width="2" height="1.22"><feOffset result="offOut" in="SourceAlpha" dy="6"/><feGaussianBlur result="blurOut" in="offOut" stdDeviation="5"/><feColorMatrix result="colorOut" in="blurOut" values="0 0 0 0 0 0 0 0 0 0 0 0 0 0 0 0 0 0 0.16862745098039217 0"/><feBlend in="SourceGraphic" in2="colorOut"/></filter><filter id="k" filterUnits="objectBoundingBox" x="-.5" y="-.06" width="2" height="1.29"><feOffset result="offOut" in="SourceAlpha" dy="6"/><feGaussianBlur result="blurOut" in="offOut" stdDeviation="5"/><feColorMatrix result="colorOut" in="blurOut" values="0 0 0 0 0 0 0 0 0 0 0 0 0 0 0 0 0 0 0.16862745098039217 0"/><feBlend in="SourceGraphic" in2="colorOut"/></filter><filter id="l" filterUnits="objectBoundingBox" x="-.82" y="-.35" width="2.65" height="2.75"><feOffset result="offOut" in="SourceAlpha" dy="6"/><feGaussianBlur result="blurOut" in="offOut" stdDeviation="5"/><feColorMatrix result="colorOut" in="blurOut" values="0 0 0 0 0 0 0 0 0 0 0 0 0 0 0 0 0 0 0.16862745098039217 0"/><feBlend in="SourceGraphic" in2="colorOut"/></filter><path d="M63-220v92h138v28H63V0H30v-248h175v28H63" id="av"/><path d="M59-47c-2 24 18 29 38 22v24C64 9 27 4 27-40v-127H5v-23h24l9-43h21v43h35v23H59v120" id="aw"/><g id="m"><use transform="matrix(0.05,0,0,0.05,0,0)" xlink:href="#av"/><use transform="matrix(0.05,0,0,0.05,10.950000000000001,0)" xlink:href="#ar"/><use transform="matrix(0.05,0,0,0.05,20.950000000000003,0)" xlink:href="#aw"/><use transform="matrix(0.05,0,0,0.05,25.950000000000003,0)" xlink:href="#as"/><use transform="matrix(0.05,0,0,0.05,34.95,0)" xlink:href="#aq"/></g><path d="M30-248c87 1 191-15 191 75 0 78-77 80-158 76V0H30v-248zm33 125c57 0 124 11 124-50 0-59-68-47-124-48v98" id="ax"/><path d="M141-36C126-15 110 5 73 4 37 3 15-17 15-53c-1-64 63-63 125-63 3-35-9-54-41-54-24 1-41 7-42 31l-33-3c5-37 33-52 76-52 45 0 72 20 72 64v82c-1 20 7 32 28 27v20c-31 9-61-2-59-35zM48-53c0 20 12 33 32 33 41-3 63-29 60-74-43 2-92-5-92 41" id="ay"/><g id="n"><use transform="matrix(0.05,0,0,0.05,0,0)" xlink:href="#ax"/><use transform="matrix(0.05,0,0,0.05,12,0)" xlink:href="#ay"/><use transform="matrix(0.05,0,0,0.05,22,0)" xlink:href="#as"/><use transform="matrix(0.05,0,0,0.05,31,0)" xlink:href="#at"/><use transform="matrix(0.05,0,0,0.05,40,0)" xlink:href="#ar"/><use transform="matrix(0.05,0,0,0.05,50,0)" xlink:href="#aw"/></g><path d="M197 0v-115H63V0H30v-248h33v105h134v-105h34V0h-34" id="az"/><g id="o"><use transform="matrix(0.06172839506172839,0,0,0.06172839506172839,0,0)" xlink:href="#an"/><use transform="matrix(0.06172839506172839,0,0,0.06172839506172839,14.814814814814813,0)" xlink:href="#az"/><use transform="matrix(0.06172839506172839,0,0,0.06172839506172839,30.80246913580247,0)" xlink:href="#ao"/></g><path d="M135-143c-3-34-86-38-87 0 15 53 115 12 119 90S17 21 10-45l28-5c4 36 97 45 98 0-10-56-113-15-118-90-4-57 82-63 122-42 12 7 21 19 24 35" id="aA"/><path d="M24-231v-30h32v30H24zM24 0v-190h32V0H24" id="aB"/><path d="M117-194c89-4 53 116 60 194h-32v-121c0-31-8-49-39-48C34-167 62-67 57 0H25l-1-190h30c1 10-1 24 2 32 11-22 29-35 61-36" id="aC"/><path d="M177-190C167-65 218 103 67 71c-23-6-38-20-44-43l32-5c15 47 100 32 89-28v-30C133-14 115 1 83 1 29 1 15-40 15-95c0-56 16-97 71-98 29-1 48 16 59 35 1-10 0-23 2-32h30zM94-22c36 0 50-32 50-73 0-42-14-75-50-75-39 0-46 34-46 75s6 73 46 73" id="aD"/><g id="p"><use transform="matrix(0.06172839506172839,0,0,0.06172839506172839,0,0)" xlink:href="#az"/><use transform="matrix(0.06172839506172839,0,0,0.06172839506172839,15.987654320987653,0)" xlink:href="#ay"/><use transform="matrix(0.06172839506172839,0,0,0.06172839506172839,28.333333333333332,0)" xlink:href="#aA"/><use transform="matrix(0.06172839506172839,0,0,0.06172839506172839,39.44444444444444,0)" xlink:href="#aq"/><use transform="matrix(0.06172839506172839,0,0,0.06172839506172839,51.79012345679012,0)" xlink:href="#aB"/><use transform="matrix(0.06172839506172839,0,0,0.06172839506172839,56.666666666666664,0)" xlink:href="#aC"/><use transform="matrix(0.06172839506172839,0,0,0.06172839506172839,69.01234567901234,0)" xlink:href="#aD"/></g><g id="q"><use transform="matrix(0.05,0,0,0.05,0,0)" xlink:href="#ax"/><use transform="matrix(0.05,0,0,0.05,12,0)" xlink:href="#ap"/></g><g id="r"><use transform="matrix(0.06172839506172839,0,0,0.06172839506172839,0,0)" xlink:href="#an"/><use transform="matrix(0.06172839506172839,0,0,0.06172839506172839,14.814814814814813,0)" xlink:href="#ay"/><use transform="matrix(0.06172839506172839,0,0,0.06172839506172839,27.160493827160494,0)" xlink:href="#as"/><use transform="matrix(0.06172839506172839,0,0,0.06172839506172839,38.27160493827161,0)" xlink:href="#at"/><use transform="matrix(0.06172839506172839,0,0,0.06172839506172839,49.38271604938272,0)" xlink:href="#aB"/><use transform="matrix(0.06172839506172839,0,0,0.06172839506172839,54.25925925925927,0)" xlink:href="#aC"/><use transform="matrix(0.06172839506172839,0,0,0.06172839506172839,66.60493827160495,0)" xlink:href="#aD"/></g><path d="M85-194c31 0 48 13 60 33l-1-100h32l1 261h-30c-2-10 0-23-3-31C134-8 116 4 85 4 32 4 16-35 15-94c0-66 23-100 70-100zm9 24c-40 0-46 34-46 75 0 40 6 74 45 74 42 0 51-32 51-76 0-42-9-74-50-73" id="aE"/><path d="M100-194c62-1 85 37 85 99 1 63-27 99-86 99S16-35 15-95c0-66 28-99 85-99zM99-20c44 1 53-31 53-75 0-43-8-75-51-75s-53 32-53 75 10 74 51 75" id="aF"/><g id="s"><use transform="matrix(0.06172839506172839,0,0,0.06172839506172839,0,0)" xlink:href="#ax"/><use transform="matrix(0.06172839506172839,0,0,0.06172839506172839,14.814814814814813,0)" xlink:href="#au"/><use transform="matrix(0.06172839506172839,0,0,0.06172839506172839,22.160493827160494,0)" xlink:href="#ar"/><use transform="matrix(0.06172839506172839,0,0,0.06172839506172839,34.50617283950617,0)" xlink:href="#aE"/><use transform="matrix(0.06172839506172839,0,0,0.06172839506172839,46.85185185185185,0)" xlink:href="#aB"/><use transform="matrix(0.06172839506172839,0,0,0.06172839506172839,51.72839506172839,0)" xlink:href="#as"/><use transform="matrix(0.06172839506172839,0,0,0.06172839506172839,62.839506172839506,0)" xlink:href="#aw"/><use transform="matrix(0.06172839506172839,0,0,0.06172839506172839,69.01234567901234,0)" xlink:href="#aF"/><use transform="matrix(0.06172839506172839,0,0,0.06172839506172839,81.35802469135803,0)" xlink:href="#au"/></g><path d="M87 75C49 33 22-17 22-94c0-76 28-126 65-167h31c-38 41-64 92-64 168S80 34 118 75H87" id="aG"/><path d="M127-220V0H93v-220H8v-28h204v28h-85" id="aH"/><path d="M205 0l-28-72H64L36 0H1l101-248h38L239 0h-34zm-38-99l-47-123c-12 45-31 82-46 123h93" id="aI"/><path d="M143 4C61 4 22-44 18-125c-5-107 100-154 193-111 17 8 29 25 37 43l-32 9c-13-25-37-40-76-40-61 0-88 39-88 99 0 61 29 100 91 101 35 0 62-11 79-27v-45h-74v-28h105v86C228-13 192 4 143 4" id="aJ"/><path d="M30 0v-248h187v28H63v79h144v27H63v87h162V0H30" id="aK"/><path d="M68-38c1 34 0 65-14 84H32c9-13 17-26 17-46H33v-38h35" id="aL"/><g id="t"><use transform="matrix(0.06172839506172839,0,0,0.06172839506172839,0,0)" xlink:href="#aG"/><use transform="matrix(0.06172839506172839,0,0,0.06172839506172839,7.345679012345679,0)" xlink:href="#aH"/><use transform="matrix(0.06172839506172839,0,0,0.06172839506172839,19.19753086419753,0)" xlink:href="#aI"/><use transform="matrix(0.06172839506172839,0,0,0.06172839506172839,34.01234567901234,0)" xlink:href="#aJ"/><use transform="matrix(0.06172839506172839,0,0,0.06172839506172839,51.29629629629629,0)" xlink:href="#aK"/><use transform="matrix(0.06172839506172839,0,0,0.06172839506172839,66.1111111111111,0)" xlink:href="#aL"/></g><path d="M185-189c-5-48-123-54-124 2 14 75 158 14 163 119 3 78-121 87-175 55-17-10-28-26-33-46l33-7c5 56 141 63 141-1 0-78-155-14-162-118-5-82 145-84 179-34 5 7 8 16 11 25" id="aM"/><g id="u"><use transform="matrix(0.06172839506172839,0,0,0.06172839506172839,0,0)" xlink:href="#aJ"/><use transform="matrix(0.06172839506172839,0,0,0.06172839506172839,17.28395061728395,0)" xlink:href="#aM"/><use transform="matrix(0.06172839506172839,0,0,0.06172839506172839,32.09876543209876,0)" xlink:href="#aq"/><use transform="matrix(0.06172839506172839,0,0,0.06172839506172839,44.444444444444436,0)" xlink:href="#ay"/><use transform="matrix(0.06172839506172839,0,0,0.06172839506172839,56.79012345679011,0)" xlink:href="#au"/><use transform="matrix(0.06172839506172839,0,0,0.06172839506172839,64.1358024691358,0)" xlink:href="#ar"/><use transform="matrix(0.06172839506172839,0,0,0.06172839506172839,76.48148148148148,0)" xlink:href="#aL"/></g><path d="M33 0v-38h34V0H33" id="aN"/><path d="M33-261c38 41 65 92 65 168S71 34 33 75H2C39 34 66-17 66-93S39-220 2-261h31" id="aO"/><g id="v"><use transform="matrix(0.06172839506172839,0,0,0.06172839506172839,0,0)" xlink:href="#ar"/><use transform="matrix(0.06172839506172839,0,0,0.06172839506172839,12.345679012345679,0)" xlink:href="#aw"/><use transform="matrix(0.06172839506172839,0,0,0.06172839506172839,18.51851851851852,0)" xlink:href="#as"/><use transform="matrix(0.06172839506172839,0,0,0.06172839506172839,29.62962962962963,0)" xlink:href="#aN"/><use transform="matrix(0.06172839506172839,0,0,0.06172839506172839,35.80246913580247,0)" xlink:href="#aO"/></g><path d="M140-251c81 0 123 46 123 126C263-46 219 4 140 4 59 4 17-45 17-125s42-126 123-126zm0 227c63 0 89-41 89-101s-29-99-89-99c-61 0-89 39-89 99S79-25 140-24" id="aP"/><path d="M24 0v-261h32V0H24" id="aQ"/><g id="w"><use transform="matrix(0.05,0,0,0.05,0,0)" xlink:href="#aP"/><use transform="matrix(0.05,0,0,0.05,14,0)" xlink:href="#aQ"/><use transform="matrix(0.05,0,0,0.05,17.95,0)" xlink:href="#aE"/></g><path d="M179-190L93 31C79 59 56 82 12 73V49c39 6 53-20 64-50L1-190h34L92-34l54-156h33" id="aR"/><g id="x"><use transform="matrix(0.05,0,0,0.05,0,0)" xlink:href="#az"/><use transform="matrix(0.05,0,0,0.05,12.950000000000001,0)" xlink:href="#aB"/><use transform="matrix(0.05,0,0,0.05,16.900000000000002,0)" xlink:href="#aA"/><use transform="matrix(0.05,0,0,0.05,25.900000000000002,0)" xlink:href="#aw"/><use transform="matrix(0.05,0,0,0.05,30.900000000000002,0)" xlink:href="#aF"/><use transform="matrix(0.05,0,0,0.05,40.900000000000006,0)" xlink:href="#au"/><use transform="matrix(0.05,0,0,0.05,46.85000000000001,0)" xlink:href="#aR"/></g><path d="M190 0L58-211 59 0H30v-248h39L202-35l-2-213h31V0h-41" id="aS"/><path d="M206 0h-36l-40-164L89 0H53L-1-190h32L70-26l43-164h34l41 164 42-164h31" id="aT"/><g id="y"><use transform="matrix(0.05,0,0,0.05,0,0)" xlink:href="#aS"/><use transform="matrix(0.05,0,0,0.05,12.950000000000001,0)" xlink:href="#ar"/><use transform="matrix(0.05,0,0,0.05,22.950000000000003,0)" xlink:href="#aT"/></g><filter id="z" filterUnits="objectBoundingBox" x="-.06" y="-.03" width="1.13" height="1.14"><feOffset result="offOut" in="SourceAlpha" dy="6"/><feGaussianBlur result="blurOut" in="offOut" stdDeviation="5"/><feColorMatrix result="colorOut" in="blurOut" values="0 0 0 0 0 0 0 0 0 0 0 0 0 0 0 0 0 0 0.16862745098039217 0"/><feBlend in="SourceGraphic" in2="colorOut"/></filter><filter id="A" filterUnits="objectBoundingBox" x="-.17" y="-.03" width="1.33" height="1.14"><feOffset result="offOut" in="SourceAlpha" dy="6"/><feGaussianBlur result="blurOut" in="offOut" stdDeviation="5"/><feColorMatrix result="colorOut" in="blurOut" values="0 0 0 0 0 0 0 0 0 0 0 0 0 0 0 0 0 0 0.16862745098039217 0"/><feBlend in="SourceGraphic" in2="colorOut"/></filter><path d="M33 0v-248h34V0H33" id="aU"/><path d="M240 0l2-218c-23 76-54 145-80 218h-23L58-218 59 0H30v-248h44l77 211c21-75 51-140 76-211h43V0h-30" id="aV"/><g id="B"><use transform="matrix(0.06172839506172839,0,0,0.06172839506172839,0,0)" xlink:href="#an"/><use transform="matrix(0.06172839506172839,0,0,0.06172839506172839,14.814814814814813,0)" xlink:href="#aU"/><use transform="matrix(0.06172839506172839,0,0,0.06172839506172839,20.98765432098765,0)" xlink:href="#aV"/></g><g id="C"><use transform="matrix(0.06172839506172839,0,0,0.06172839506172839,0,0)" xlink:href="#an"/><use transform="matrix(0.06172839506172839,0,0,0.06172839506172839,14.814814814814813,0)" xlink:href="#aH"/><use transform="matrix(0.06172839506172839,0,0,0.06172839506172839,28.33333333333333,0)" xlink:href="#an"/></g><path d="M0 4l72-265h28L28 4H0" id="aW"/><g id="D"><use transform="matrix(0.06172839506172839,0,0,0.06172839506172839,0,0)" xlink:href="#aH"/><use transform="matrix(0.06172839506172839,0,0,0.06172839506172839,11.049382716049381,0)" xlink:href="#ay"/><use transform="matrix(0.06172839506172839,0,0,0.06172839506172839,23.39506172839506,0)" xlink:href="#aD"/><use transform="matrix(0.06172839506172839,0,0,0.06172839506172839,35.74074074074074,0)" xlink:href="#aA"/><use transform="matrix(0.06172839506172839,0,0,0.06172839506172839,46.85185185185185,0)" xlink:href="#aW"/><use transform="matrix(0.06172839506172839,0,0,0.06172839506172839,53.02469135802469,0)" xlink:href="#aH"/><use transform="matrix(0.06172839506172839,0,0,0.06172839506172839,64.07407407407408,0)" xlink:href="#ay"/><use transform="matrix(0.06172839506172839,0,0,0.06172839506172839,76.41975308641976,0)" xlink:href="#au"/><use transform="matrix(0.06172839506172839,0,0,0.06172839506172839,83.76543209876544,0)" xlink:href="#aD"/><use transform="matrix(0.06172839506172839,0,0,0.06172839506172839,96.11111111111113,0)" xlink:href="#ar"/><use transform="matrix(0.06172839506172839,0,0,0.06172839506172839,108.45679012345681,0)" xlink:href="#aw"/><use transform="matrix(0.06172839506172839,0,0,0.06172839506172839,114.62962962962965,0)" xlink:href="#aW"/><use transform="matrix(0.06172839506172839,0,0,0.06172839506172839,120.80246913580248,0)" xlink:href="#ar"/><use transform="matrix(0.06172839506172839,0,0,0.06172839506172839,133.14814814814815,0)" xlink:href="#aw"/><use transform="matrix(0.06172839506172839,0,0,0.06172839506172839,139.320987654321,0)" xlink:href="#as"/><use transform="matrix(0.06172839506172839,0,0,0.06172839506172839,150.4320987654321,0)" xlink:href="#aN"/></g><filter id="E" filterUnits="objectBoundingBox" x="-.18" y="-.02" width="1.36" height="1.1"><feOffset result="offOut" in="SourceAlpha" dy="6"/><feGaussianBlur result="blurOut" in="offOut" stdDeviation="5"/><feColorMatrix result="colorOut" in="blurOut" values="0 0 0 0 0 0 0 0 0 0 0 0 0 0 0 0 0 0 0.16862745098039217 0"/><feBlend in="SourceGraphic" in2="colorOut"/></filter><g id="F"><use transform="matrix(0.06172839506172839,0,0,0.06172839506172839,0,0)" xlink:href="#ao"/><use transform="matrix(0.06172839506172839,0,0,0.06172839506172839,15.987654320987653,0)" xlink:href="#aI"/><use transform="matrix(0.06172839506172839,0,0,0.06172839506172839,30.80246913580247,0)" xlink:href="#aM"/></g><path d="M115-194c55 1 70 41 70 98S169 2 115 4C84 4 66-9 55-30l1 105H24l-1-265h31l2 30c10-21 28-34 59-34zm-8 174c40 0 45-34 45-75s-6-73-45-74c-42 0-51 32-51 76 0 43 10 73 51 73" id="aX"/><g id="G"><use transform="matrix(0.05,0,0,0.05,0,0)" xlink:href="#ao"/><use transform="matrix(0.05,0,0,0.05,12.950000000000001,0)" xlink:href="#ar"/><use transform="matrix(0.05,0,0,0.05,22.950000000000003,0)" xlink:href="#aA"/><use transform="matrix(0.05,0,0,0.05,31.950000000000003,0)" xlink:href="#aX"/></g><g id="H"><use transform="matrix(0.05,0,0,0.05,0,0)" xlink:href="#an"/><use transform="matrix(0.05,0,0,0.05,12,0)" xlink:href="#aH"/><use transform="matrix(0.05,0,0,0.05,22.950000000000003,0)" xlink:href="#an"/></g><path d="M232-93c-1 65-40 97-104 97C67 4 28-28 28-90v-158h33c8 89-33 224 67 224 102 0 64-133 71-224h33v155" id="aY"/><g id="I"><use transform="matrix(0.05,0,0,0.05,0,0)" xlink:href="#aY"/><use transform="matrix(0.05,0,0,0.05,12.950000000000001,0)" xlink:href="#aX"/><use transform="matrix(0.05,0,0,0.05,22.950000000000003,0)" xlink:href="#aE"/><use transform="matrix(0.05,0,0,0.05,32.95,0)" xlink:href="#ay"/><use transform="matrix(0.05,0,0,0.05,42.95,0)" xlink:href="#aw"/><use transform="matrix(0.05,0,0,0.05,47.95,0)" xlink:href="#ar"/></g><path d="M30-248c118-7 216 8 213 122C240-48 200 0 122 0H30v-248zM63-27c89 8 146-16 146-99s-60-101-146-95v194" id="aZ"/><g id="J"><use transform="matrix(0.06172839506172839,0,0,0.06172839506172839,0,0)" xlink:href="#aZ"/><use transform="matrix(0.06172839506172839,0,0,0.06172839506172839,15.987654320987653,0)" xlink:href="#ar"/><use transform="matrix(0.06172839506172839,0,0,0.06172839506172839,28.333333333333332,0)" xlink:href="#as"/><use transform="matrix(0.06172839506172839,0,0,0.06172839506172839,39.44444444444444,0)" xlink:href="#aF"/><use transform="matrix(0.06172839506172839,0,0,0.06172839506172839,51.79012345679012,0)" xlink:href="#aE"/><use transform="matrix(0.06172839506172839,0,0,0.06172839506172839,64.1358024691358,0)" xlink:href="#ar"/></g><filter id="K" filterUnits="objectBoundingBox" x="-.02" y="-.03" width="1.05" height="1.13"><feOffset result="offOut" in="SourceAlpha" dy="6"/><feGaussianBlur result="blurOut" in="offOut" stdDeviation="5"/><feColorMatrix result="colorOut" in="blurOut" values="0 0 0 0 0 0 0 0 0 0 0 0 0 0 0 0 0 0 0.16862745098039217 0"/><feBlend in="SourceGraphic" in2="colorOut"/></filter><filter id="L" filterUnits="objectBoundingBox" x="-.07" y="-.03" width="1.15" height="1.17"><feOffset result="offOut" in="SourceAlpha" dy="6"/><feGaussianBlur result="blurOut" in="offOut" stdDeviation="5"/><feColorMatrix result="colorOut" in="blurOut" values="0 0 0 0 0 0 0 0 0 0 0 0 0 0 0 0 0 0 0.16862745098039217 0"/><feBlend in="SourceGraphic" in2="colorOut"/></filter><path d="M30 0v-248h33v221h125V0H30" id="ba"/><g id="M"><use transform="matrix(0.06172839506172839,0,0,0.06172839506172839,0,0)" xlink:href="#aH"/><use transform="matrix(0.06172839506172839,0,0,0.06172839506172839,13.518518518518517,0)" xlink:href="#ba"/><use transform="matrix(0.06172839506172839,0,0,0.06172839506172839,25.864197530864196,0)" xlink:href="#an"/></g><path d="M194-70c0 46-34 64-81 66v29H91V-4C42-5 12-27 4-67l30-6c5 28 25 41 57 43v-87c-38-9-76-20-76-67 1-42 33-58 76-59v-23h22v23c45 0 67 20 76 56l-31 6c-5-23-18-35-45-37v78c41 10 81 20 81 70zm-81 41c51 7 71-66 19-77-6-2-12-4-19-6v83zM91-219c-47-6-63 57-18 69 6 2 12 3 18 5v-74" id="bb"/><g id="N"><use transform="matrix(0.06172839506172839,0,0,0.06172839506172839,0,0)" xlink:href="#aU"/><use transform="matrix(0.06172839506172839,0,0,0.06172839506172839,6.172839506172839,0)" xlink:href="#bb"/></g><filter id="O" filterUnits="objectBoundingBox" x="-.5" y="-.05" width="2" height="1.23"><feOffset result="offOut" in="SourceAlpha" dy="6"/><feGaussianBlur result="blurOut" in="offOut" stdDeviation="5"/><feColorMatrix result="colorOut" in="blurOut" values="0 0 0 0 0 0 0 0 0 0 0 0 0 0 0 0 0 0 0.16862745098039217 0"/><feBlend in="SourceGraphic" in2="colorOut"/></filter><filter id="P" filterUnits="objectBoundingBox" x="-.5" y="-.03" width="2" height="1.17"><feOffset result="offOut" in="SourceAlpha" dy="6"/><feGaussianBlur result="blurOut" in="offOut" stdDeviation="5"/><feColorMatrix result="colorOut" in="blurOut" values="0 0 0 0 0 0 0 0 0 0 0 0 0 0 0 0 0 0 0.16862745098039217 0"/><feBlend in="SourceGraphic" in2="colorOut"/></filter><filter id="Q" filterUnits="objectBoundingBox" x="-.82" y="-.21" width="2.65" height="2.04"><feOffset result="offOut" in="SourceAlpha" dy="6"/><feGaussianBlur result="blurOut" in="offOut" stdDeviation="5"/><feColorMatrix result="colorOut" in="blurOut" values="0 0 0 0 0 0 0 0 0 0 0 0 0 0 0 0 0 0 0.16862745098039217 0"/><feBlend in="SourceGraphic" in2="colorOut"/></filter><path d="M16-82v-28h88v28H16" id="bc"/><g id="R"><use transform="matrix(0.05,0,0,0.05,0,0)" xlink:href="#an"/><use transform="matrix(0.05,0,0,0.05,12,0)" xlink:href="#ay"/><use transform="matrix(0.05,0,0,0.05,22,0)" xlink:href="#as"/><use transform="matrix(0.05,0,0,0.05,31,0)" xlink:href="#at"/><use transform="matrix(0.05,0,0,0.05,40,0)" xlink:href="#bc"/><use transform="matrix(0.05,0,0,0.05,45.95,0)" xlink:href="#ar"/><use transform="matrix(0.05,0,0,0.05,55.95,0)" xlink:href="#aC"/><use transform="matrix(0.05,0,0,0.05,65.95,0)" xlink:href="#aE"/></g><g id="S"><use transform="matrix(0.05,0,0,0.05,0,0)" xlink:href="#ao"/><use transform="matrix(0.05,0,0,0.05,12.950000000000001,0)" xlink:href="#ar"/><use transform="matrix(0.05,0,0,0.05,22.950000000000003,0)" xlink:href="#aE"/><use transform="matrix(0.05,0,0,0.05,32.95,0)" xlink:href="#aB"/><use transform="matrix(0.05,0,0,0.05,36.900000000000006,0)" xlink:href="#au"/><use transform="matrix(0.05,0,0,0.05,42.85000000000001,0)" xlink:href="#ar"/><use transform="matrix(0.05,0,0,0.05,52.85,0)" xlink:href="#as"/><use transform="matrix(0.05,0,0,0.05,61.85,0)" xlink:href="#aw"/></g><g id="T"><use transform="matrix(0.05,0,0,0.05,0,0)" xlink:href="#aH"/><use transform="matrix(0.05,0,0,0.05,8.950000000000001,0)" xlink:href="#ay"/><use transform="matrix(0.05,0,0,0.05,18.950000000000003,0)" xlink:href="#au"/><use transform="matrix(0.05,0,0,0.05,24.900000000000002,0)" xlink:href="#aD"/><use transform="matrix(0.05,0,0,0.05,34.900000000000006,0)" xlink:href="#ar"/><use transform="matrix(0.05,0,0,0.05,44.900000000000006,0)" xlink:href="#aw"/></g><g id="U"><use transform="matrix(0.06172839506172839,0,0,0.06172839506172839,0,0)" xlink:href="#ao"/><use transform="matrix(0.06172839506172839,0,0,0.06172839506172839,15.987654320987653,0)" xlink:href="#ar"/><use transform="matrix(0.06172839506172839,0,0,0.06172839506172839,28.333333333333332,0)" xlink:href="#aE"/><use transform="matrix(0.06172839506172839,0,0,0.06172839506172839,40.67901234567901,0)" xlink:href="#aB"/><use transform="matrix(0.06172839506172839,0,0,0.06172839506172839,45.55555555555556,0)" xlink:href="#au"/><use transform="matrix(0.06172839506172839,0,0,0.06172839506172839,52.901234567901234,0)" xlink:href="#ar"/><use transform="matrix(0.06172839506172839,0,0,0.06172839506172839,65.24691358024691,0)" xlink:href="#as"/><use transform="matrix(0.06172839506172839,0,0,0.06172839506172839,76.35802469135803,0)" xlink:href="#aw"/></g><g id="V"><use transform="matrix(0.06172839506172839,0,0,0.06172839506172839,0,0)" xlink:href="#ba"/><use transform="matrix(0.06172839506172839,0,0,0.06172839506172839,12.345679012345679,0)" xlink:href="#aF"/><use transform="matrix(0.06172839506172839,0,0,0.06172839506172839,24.691358024691358,0)" xlink:href="#aD"/><use transform="matrix(0.06172839506172839,0,0,0.06172839506172839,37.03703703703704,0)" xlink:href="#aB"/><use transform="matrix(0.06172839506172839,0,0,0.06172839506172839,41.91358024691358,0)" xlink:href="#as"/></g><g id="W"><use transform="matrix(0.05,0,0,0.05,0,0)" xlink:href="#aP"/><use transform="matrix(0.05,0,0,0.05,14,0)" xlink:href="#aw"/><use transform="matrix(0.05,0,0,0.05,19,0)" xlink:href="#aq"/><use transform="matrix(0.05,0,0,0.05,29,0)" xlink:href="#ar"/><use transform="matrix(0.05,0,0,0.05,39,0)" xlink:href="#au"/></g><g id="X"><use transform="matrix(0.05,0,0,0.05,0,0)" xlink:href="#ax"/><use transform="matrix(0.05,0,0,0.05,12,0)" xlink:href="#ap"/><use transform="matrix(0.05,0,0,0.05,24.950000000000003,0)" xlink:href="#aA"/></g><g id="Y"><use transform="matrix(0.05,0,0,0.05,0,0)" xlink:href="#aS"/><use transform="matrix(0.05,0,0,0.05,12.950000000000001,0)" xlink:href="#ax"/><use transform="matrix(0.05,0,0,0.05,24.950000000000003,0)" xlink:href="#ap"/></g><g id="Z"><use transform="matrix(0.05,0,0,0.05,0,0)" xlink:href="#ba"/><use transform="matrix(0.05,0,0,0.05,10,0)" xlink:href="#aF"/><use transform="matrix(0.05,0,0,0.05,20,0)" xlink:href="#aD"/><use transform="matrix(0.05,0,0,0.05,30,0)" xlink:href="#aB"/><use transform="matrix(0.05,0,0,0.05,33.95,0)" xlink:href="#as"/></g><g id="aa"><use transform="matrix(0.06172839506172839,0,0,0.06172839506172839,0,0)" xlink:href="#an"/><use transform="matrix(0.06172839506172839,0,0,0.06172839506172839,14.814814814814813,0)" xlink:href="#aH"/><use transform="matrix(0.06172839506172839,0,0,0.06172839506172839,28.33333333333333,0)" xlink:href="#an"/></g><g id="ab"><use transform="matrix(0.06172839506172839,0,0,0.06172839506172839,0,0)" xlink:href="#ao"/><use transform="matrix(0.06172839506172839,0,0,0.06172839506172839,15.987654320987653,0)" xlink:href="#ar"/><use transform="matrix(0.06172839506172839,0,0,0.06172839506172839,28.333333333333332,0)" xlink:href="#aA"/><use transform="matrix(0.06172839506172839,0,0,0.06172839506172839,39.44444444444444,0)" xlink:href="#aX"/><use transform="matrix(0.06172839506172839,0,0,0.06172839506172839,51.79012345679012,0)" xlink:href="#aF"/><use transform="matrix(0.06172839506172839,0,0,0.06172839506172839,64.1358024691358,0)" xlink:href="#aC"/><use transform="matrix(0.06172839506172839,0,0,0.06172839506172839,76.48148148148148,0)" xlink:href="#aA"/><use transform="matrix(0.06172839506172839,0,0,0.06172839506172839,87.5925925925926,0)" xlink:href="#ar"/></g><path d="M140-251c81 0 123 46 123 126C263-53 228-8 163 1c7 30 30 48 69 40v23c-55 16-95-15-103-61C56-3 17-48 17-125c0-80 42-126 123-126zm0 227c63 0 89-41 89-101s-29-99-89-99c-61 0-89 39-89 99S79-25 140-24" id="bd"/><path d="M84 4C-5 8 30-112 23-190h32v120c0 31 7 50 39 49 72-2 45-101 50-169h31l1 190h-30c-1-10 1-25-2-33-11 22-28 36-60 37" id="be"/><g id="ac"><use transform="matrix(0.06172839506172839,0,0,0.06172839506172839,0,0)" xlink:href="#bd"/><use transform="matrix(0.06172839506172839,0,0,0.06172839506172839,17.28395061728395,0)" xlink:href="#be"/><use transform="matrix(0.06172839506172839,0,0,0.06172839506172839,29.629629629629626,0)" xlink:href="#ar"/><use transform="matrix(0.06172839506172839,0,0,0.06172839506172839,41.9753086419753,0)" xlink:href="#be"/><use transform="matrix(0.06172839506172839,0,0,0.06172839506172839,54.32098765432098,0)" xlink:href="#ar"/></g><path d="M210-169c-67 3-38 105-44 169h-31v-121c0-29-5-50-35-48C34-165 62-65 56 0H25l-1-190h30c1 10-1 24 2 32 10-44 99-50 107 0 11-21 27-35 58-36 85-2 47 119 55 194h-31v-121c0-29-5-49-35-48" id="bf"/><g id="ad"><use transform="matrix(0.06172839506172839,0,0,0.06172839506172839,0,0)" xlink:href="#aU"/><use transform="matrix(0.06172839506172839,0,0,0.06172839506172839,6.172839506172839,0)" xlink:href="#aV"/><use transform="matrix(0.06172839506172839,0,0,0.06172839506172839,24.629629629629626,0)" xlink:href="#ar"/><use transform="matrix(0.06172839506172839,0,0,0.06172839506172839,36.9753086419753,0)" xlink:href="#bf"/></g><g id="ae"><use transform="matrix(0.06172839506172839,0,0,0.06172839506172839,0,0)" xlink:href="#av"/><use transform="matrix(0.06172839506172839,0,0,0.06172839506172839,13.518518518518517,0)" xlink:href="#ar"/><use transform="matrix(0.06172839506172839,0,0,0.06172839506172839,25.864197530864196,0)" xlink:href="#aw"/><use transform="matrix(0.06172839506172839,0,0,0.06172839506172839,32.03703703703704,0)" xlink:href="#as"/><use transform="matrix(0.06172839506172839,0,0,0.06172839506172839,43.14814814814815,0)" xlink:href="#aq"/></g><path d="M101-234c-31-9-42 10-38 44h38v23H63V0H32v-167H5v-23h27c-7-52 17-82 69-68v24" id="bg"/><g id="af"><use transform="matrix(0.06172839506172839,0,0,0.06172839506172839,0,0)" xlink:href="#an"/><use transform="matrix(0.06172839506172839,0,0,0.06172839506172839,14.814814814814813,0)" xlink:href="#be"/><use transform="matrix(0.06172839506172839,0,0,0.06172839506172839,27.160493827160494,0)" xlink:href="#bg"/><use transform="matrix(0.06172839506172839,0,0,0.06172839506172839,32.901234567901234,0)" xlink:href="#bg"/><use transform="matrix(0.06172839506172839,0,0,0.06172839506172839,39.074074074074076,0)" xlink:href="#ar"/><use transform="matrix(0.06172839506172839,0,0,0.06172839506172839,51.41975308641975,0)" xlink:href="#au"/></g><g id="ag"><use transform="matrix(0.06172839506172839,0,0,0.06172839506172839,0,0)" xlink:href="#aH"/><use transform="matrix(0.06172839506172839,0,0,0.06172839506172839,11.049382716049381,0)" xlink:href="#ay"/><use transform="matrix(0.06172839506172839,0,0,0.06172839506172839,23.39506172839506,0)" xlink:href="#au"/><use transform="matrix(0.06172839506172839,0,0,0.06172839506172839,30.74074074074074,0)" xlink:href="#aD"/><use transform="matrix(0.06172839506172839,0,0,0.06172839506172839,43.08641975308642,0)" xlink:href="#ar"/><use transform="matrix(0.06172839506172839,0,0,0.06172839506172839,55.432098765432094,0)" xlink:href="#aw"/></g></defs></g></svg>