<svg xmlns="http://www.w3.org/2000/svg" xmlns:xlink="http://www.w3.org/1999/xlink" xmlns:lucid="lucid" width="1411" height="1151"><g transform="translate(-69 -140)" lucid:page-tab-id="0_0"><path d="M480 280v-80" stroke="#3d4752" stroke-width="2" fill="none"/><path d="M640.83 513.33H771.5V540H640.83z" fill="none"/><use xlink:href="#a" transform="matrix(1,0,0,1,640.8333333333333,513.3333333333334) translate(9.599999999999994 17.1)"/><use xlink:href="#b" transform="matrix(1,0,0,1,640.8333333333333,513.3333333333334) translate(78.5 17.1)"/><path d="M140 160h100v29.33H140z" fill="none"/><use xlink:href="#c" transform="matrix(1,0,0,1,140,160) translate(37.0679012345679 19.444444444444443)"/><path d="M340 341.38h923.47V900H340z" fill-opacity="0"/><path d="M354.05 341.38h12.05m8.03 0h12.04m8.03 0h12.05m8.03 0h12.04m8.03 0h12.05m8.03 0h12.05m8.03 0h12.05m8.03 0h12.05m8.03 0h12.04m8.03 0h12.05m8.03 0h12.05m8.03 0h12.05m8.03 0H607m8.03 0h12.05m8.03 0h12.05m8.04 0h12.03m8.03 0h12.05m8.04 0h12.04m8.03 0h12.06m8.03 0h12.03m8.03 0h12.05m8.04 0h12.04m8.03 0h12.06m8.03 0h12.03m8.03 0h12.05m8.04 0H868m8.02 0h12.04m8.03 0h12.04m8.03 0h12.04m8.04 0h12.05m8.02 0h12.04m8.03 0h12.04m8.03 0h12.04m8.04 0h12.05m8.02 0h12.04m8.03 0h12.04m8.03 0h12.05m8.03 0h12.04m8.02 0h12.05m8.03 0h12.04m8.03 0h12.05m8.03 0h12.04m8.02 0h12.05m8.03 0h12.04m8.03 0h12.05m8.03 0h6.02v5.98m0 7.98v11.97m0 8v11.96m0 7.98v11.97m0 8v11.96m0 7.98v11.97m0 8v11.97m0 7.98v11.97m0 7.98v11.97m0 7.98v11.97m0 7.98v11.97m0 7.98v11.97m0 7.98v11.97m0 7.98v11.97m0 7.98v11.97m0 7.98v11.97m0 7.98v11.97m0 7.98v11.98m0 7.98v11.98m0 7.98v11.97m0 7.98v11.98m0 7.98v11.97m0 7.98v11.98m0 7.98v11.97m0 7.98v11.98m0 7.98v11.97m0 7.98v11.98m0 7.98v11.97m0 7.98v6h-6.02m-8.03 0h-12.05m-8.03 0h-12.04m-8.03 0h-12.05m-8.03 0h-12.05m-8.03 0h-12.05m-8.03 0H1137m-8.03 0h-12.05m-8.03 0h-12.05m-8.03 0h-12.05m-8.03 0h-12.05m-8.04 0h-12.04m-8.03 0h-12.06m-8.03 0h-12.03m-8.03 0H976.4m-8.04 0h-12.04m-8.03 0h-12.06m-8.03 0h-12.03m-8.03 0H896.1m-8.04 0h-12.04m-8.03 0h-12.06m-8.03 0h-12.04m-8.03 0H815.8m-8.04 0H795.7m-8.02 0h-12.04m-8.03 0h-12.04m-8.03 0H735.5m-8.04 0H715.4m-8.02 0h-12.04m-8.03 0h-12.04m-8.03 0H655.2m-8.05 0H635.1m-8.02 0h-12.05m-8.03 0h-12.04m-8.03 0h-12.05m-8.03 0H554.8m-8.02 0h-12.05m-8.03 0h-12.04m-8.03 0h-12.05m-8.03 0H474.5m-8.02 0h-12.05m-8.03 0h-12.05m-8.03 0h-12.04m-8.03 0H394.2m-8.03 0h-12.04m-8.03 0h-12.05m-8.03 0H340v-6m0-7.97v-11.97m0-7.98V854.1m0-7.97v-11.97m0-7.98V814.2m0-7.97v-11.97m0-7.98V774.3m0-7.97v-11.97m0-7.98V734.4m0-7.97v-11.97m0-7.98V694.5m0-7.97v-11.98m0-7.98V654.6m0-7.98v-11.97m0-7.98V614.7m0-7.98v-11.97m0-7.98V574.8m0-7.98v-11.97m0-7.98V534.9m0-7.98v-11.97m0-7.98V495m0-7.98v-11.97m0-7.98V455.1m0-8v-11.96m0-7.98V415.2m0-8v-11.96m0-7.98V375.3m0-8v-11.96m0-7.98v-6h6.02" stroke="#0c7cba" stroke-width="4" fill="none"/><use xlink:href="#d" transform="matrix(1,0,0,1,345,346.375) translate(674.0987654320987 24.888888888888893)"/><use xlink:href="#e" transform="matrix(1,0,0,1,345,346.375) translate(789.8148148148148 24.888888888888893)"/><path d="M320 1230V200M640 1230V200M960 1230V200M1280 1230V200" stroke="#c92d39" stroke-width="4" fill="none"/><path d="M175 939c-8.28 0-15-6.27-15-14 0-6.2 4.06-11.4 10.36-13.3C170 893.5 195 890 205 897c5-10.5 30-7 30 3.5 15-3.5 30 10.5 20 28 10 14 0 31.5-20 24.5-5 9.1-25 9.1-30 0-10 7-30 3.5-30-14z" stroke="#000" stroke-width="2" fill="#fff"/><use xlink:href="#f" transform="matrix(1,0,0,1,165,895) translate(24.525 33.6)"/><path d="M302.64 1058.33h20.83v70h-20.83z" stroke="#3d4752" stroke-width="4" fill="#fff" filter="url(#g)"/><path d="M306.1 1128.33H320l-6.94-11.66z" stroke="#3d4752" stroke-width="4" fill="#fff" filter="url(#h)"/><path d="M620 1058.33h20.83v70H620z" stroke="#3d4752" stroke-width="4" fill="#fff" filter="url(#g)"/><path d="M623.47 1128.33h13.9l-6.95-11.66z" stroke="#3d4752" stroke-width="4" fill="#fff" filter="url(#h)"/><path d="M1260 1058.33h20.83v70H1260z" stroke="#3d4752" stroke-width="4" fill="#fff" filter="url(#g)"/><path d="M1263.47 1128.33h13.9l-6.95-11.66z" stroke="#3d4752" stroke-width="4" fill="#fff" filter="url(#h)"/><path d="M980 1058.4h20v69.93h-20zM940 1058.4h20v69.93h-20zM920 1058.4h20v69.93h-20zM960 1058.4h20v69.93h-20z" stroke="#3d4752" stroke-width="4" fill="#fff" filter="url(#i)"/><path d="M900 1058.4l18-.07" stroke="#494949" stroke-width="4" fill="none"/><path d="M921 1058.4h-1v1.92h-2v-4h3z" fill="#494949"/><path d="M918 1128.33h-18" stroke="#494949" stroke-width="4" fill="none"/><path d="M920 1128.33h1v2h-3v-4h2z" fill="#494949"/><path d="M302.64 800h20.83v70h-20.83z" stroke="#3d4752" stroke-width="4" fill="#fff" filter="url(#g)"/><path d="M306.1 870H320l-6.94-11.67z" stroke="#3d4752" stroke-width="4" fill="#fff" filter="url(#h)"/><path d="M101.77 836H80v-2h21.77zm180.63 0H169.67v-2H282.4zM297.4 835l-14.26 4.64v-9.28z"/><path d="M300.64 835l-18.5 6v-12zm-16.5 3.26l10.03-3.26-10.03-3.26z"/><use xlink:href="#j" transform="matrix(1,0,0,1,101.76719968618765,824.2) translate(0 14.4)"/><use xlink:href="#k" transform="matrix(1,0,0,1,101.76719968618765,824.2) translate(5 14.4)"/><path d="M200 1058.4l20 17.5v35l-20 17.5z" stroke="#3d4752" stroke-width="4" fill="#fff" filter="url(#l)"/><path d="M210 873.06V835h90.64" stroke="#000" stroke-width="2" fill="none"/><path d="M210 888.06l-4.64-14.27h9.28z" stroke="#000" stroke-width="2"/><path d="M302.64 836h-2v-2h2z"/><path d="M222 1093.4h60.4" stroke="#000" stroke-width="2" fill="none"/><path d="M222 1094.4h-2v-2h2z"/><path d="M297.4 1093.4l-14.26 4.65v-9.27z" stroke="#000" stroke-width="2"/><path d="M210 976.94V1020h52v73.4h-40" stroke="#000" stroke-width="2" fill="none"/><path d="M210 961.94l4.64 14.26h-9.28z" stroke="#000" stroke-width="2"/><path d="M222 1094.4h-2v-2h2z"/><path d="M520 1052.5l20 20.42v40.83l-20 20.42z" stroke="#3d4752" stroke-width="4" fill="#fff" filter="url(#m)"/><path d="M757.4 1094.33H642.84v-2H757.4zm124.36 0h-68.5v-2h68.5zM642.83 1094.33h-2v-2h2zM896.76 1093.33l-14.26 4.64v-9.27z"/><path d="M900 1093.33l-18.5 6.02v-12.03zm-16.5 3.26l10.03-3.27-10.03-3.26z"/><use xlink:href="#n" transform="matrix(1,0,0,1,757.4083333333334,1082.5333333333335) translate(0 14.4)"/><path d="M683.83 1094.33h-41v-2h39v-78.83H479v41.24h20.76v2H477v-45.24h206.83z"/><path d="M642.83 1094.33h-2v-2h2zM514.76 1055.74l-14.26 4.64v-9.27z"/><path d="M518 1055.74l-18.5 6v-12zm-16.5 3.26l10.03-3.26-10.03-3.26z"/><path d="M1282.83 1093.33h40V1000H460v74.4h39.76" stroke="#000" stroke-width="2" fill="none"/><path d="M1282.83 1094.33h-2v-2h2z"/><path d="M514.76 1074.4l-14.26 4.64v-9.27z" stroke="#000" stroke-width="2"/><path d="M1025.52 1094.37H1002v-2h23.52zm214.24-.04l-109.76.04h-48.63v-2H1130l109.76-.04zM1002 1094.37h-2v-2h2zM1254.76 1093.33l-14.26 4.64v-9.27z"/><path d="M1258 1093.33l-18.5 6.02v-12.03zm-16.5 3.26l10.03-3.27-10.03-3.26zM1101 1241.76h-2v-45.55h2zm0-67.15h-2v-80.23h-17.63v-2H1101zm-99-80.23v-2h23.52v2zM1002 1094.37h-2v-2h2zM1100 1256.76l-4.64-14.26h9.28z"/><path d="M1100 1260l-6-18.5h12zm-3.26-16.5l3.26 10.03 3.26-10.03z"/><use xlink:href="#o" transform="matrix(1,0,0,1,1048.6,1174.6147985069188) translate(0 14.4)"/><use xlink:href="#n" transform="matrix(1,0,0,1,1025.5201943816546,1082.5736838060106) translate(0 14.4)"/><path d="M413.4 1094.33h-87.93v-2h87.94zm86.36 0h-30.5v-2h30.5z"/><path d="M325.47 1094.33h-2v-2h2zM514.76 1093.33l-14.26 4.64v-9.27z"/><path d="M518 1093.33l-18.5 6.02v-12.03zm-16.5 3.26l10.03-3.27-10.03-3.26z"/><use xlink:href="#n" transform="matrix(1,0,0,1,413.40733333333355,1082.5333333333338) translate(0 14.4)"/><path d="M388.86 1111.6h110.9v2h-112.9V926H257.73v-2h131.13zM257.73 926h-1.57l.84-1.8.05-.2h.68zM514.76 1112.6l-14.26 4.65v-9.27z"/><path d="M518 1112.6l-18.5 6.02v-12.02zm-16.5 3.27l10.03-3.26-10.03-3.25zM461 1240h-2v-34.76h2zm38.76-104.56H461v48.2h-2v-50.2h40.76zM514.76 1134.44l-14.26 4.64v-9.27z"/><path d="M518 1134.44l-18.5 6.02v-12.03zm-16.5 3.26l10.03-3.26-10.03-3.25z"/><use xlink:href="#p" transform="matrix(1,0,0,1,408.1,1183.6444444444446) translate(0 14.4)"/><use xlink:href="#q" transform="matrix(1,0,0,1,408.1,1183.6444444444446) translate(40.900000000000006 14.4)"/><path d="M542 1093.33h57.76" stroke="#000" stroke-width="2" fill="none"/><path d="M542 1094.33h-2v-2h2z"/><path d="M614.76 1093.33l-14.26 4.64v-9.27z" stroke="#000" stroke-width="2"/><path d="M1323.83 1094.33h-41v-2h39V1001H141v91.4h38.76v2H139V999h1184.83z"/><path d="M1282.83 1094.33h-2v-2h2zM194.76 1093.4l-14.26 4.65v-9.27z"/><path d="M198 1093.4l-18.5 6.03v-12.03zm-16.5 3.27l10.03-3.26-10.03-3.24z"/><path d="M325.47 1093.33H370V1040H158v25.1h21.76" stroke="#000" stroke-width="2" fill="none"/><path d="M325.47 1094.33h-2v-2h2z"/><path d="M194.76 1065.1l-14.26 4.65v-9.27z" stroke="#000" stroke-width="2"/><path d="M580 540h103.6v152H580z" stroke="#0c7cba" stroke-width="4" fill="#fff" filter="url(#r)"/><path d="M589.83 616.1h83.94v34.8h-83.94zM589.83 581.3h83.94v34.8h-83.94z" stroke="#0c7cba" stroke-width="4" fill="#fff"/><path d="M589.83 650.74h83.94v34.8h-83.94zM589.83 546.5h83.94v34.8h-83.94z" stroke="#0c7cba" stroke-width="4" fill="#fff"/><path d="M375 647.5c-8.28 0-15-6.28-15-14 0-6.2 4.06-11.4 10.36-13.32-.36-18.2 24.64-21.7 34.64-14.7 5-10.5 30-7 30 3.5 15-3.5 30 10.5 20 28 10 14 0 31.5-20 24.5-5 9.1-25 9.1-30 0-10 7-30 3.5-30-14z" stroke="#0c7cba" stroke-width="2" fill="#fff"/><use xlink:href="#f" transform="matrix(1,0,0,1,365,603.4902919849847) translate(24.525 33.6)"/><path d="M980 616.04h20v67.38h-20zM940 616.04h20v67.38h-20zM920 616.04h20v67.38h-20zM960 616.04h20v67.38h-20z" stroke="#0c7cba" stroke-width="4" fill="#fff" filter="url(#s)"/><path d="M918 683.42h-18" stroke="#0c7cba" stroke-width="4" fill="none"/><path d="M920 683.42h1v2h-3v-4h2z" fill="#0c7cba"/><path d="M980 548.66h20v67.38h-20zM940 548.66h20v67.38h-20zM920 548.66h20v67.38h-20zM960 548.66h20v67.38h-20z" stroke="#0c7cba" stroke-width="4" fill="#fff" filter="url(#s)"/><path d="M900 548.66l18-.08" stroke="#0c7cba" stroke-width="4" fill="none"/><path d="M921 548.66h-1v1.92h-2v-4h3z" fill="#0c7cba"/><path d="M918 616.04h-18" stroke="#0c7cba" stroke-width="4" fill="none"/><path d="M920 616.04h1v2h-3v-4h2zM715.9 617h-30.3v-2h30.3zm145.86-36H801v24.2h-2V579h62.76zM685.6 617h-2v-2h2zM876.76 580l-14.26 4.64v-9.28z" fill="#0c7cba"/><path d="M880 580l-18.5 6v-12zm-16.5 3.26l10.03-3.26-10.03-3.26z" fill="#0c7cba"/><use xlink:href="#a" transform="matrix(1,0,0,1,715.9083333333334,605.2) translate(0 14.4)"/><use xlink:href="#t" transform="matrix(1,0,0,1,715.9083333333334,605.2) translate(68.9 14.4)"/><path d="M473.16 634.5h-15.43v-2h15.43zm86.6-17.5h-40.9v5.7h-2V615h42.9zM457.73 634.5h-1.57l.84-1.8.05-.2h.68zM574.76 616l-14.26 4.64v-9.28z" fill="#0c7cba"/><path d="M578 616l-18.5 6v-12zm-16.5 3.26l10.03-3.26-10.03-3.26zM541 715.47h184.7v2H539V644.3h2zm320.76-68H821v70h-13.36v-2H819v-70h42.76zM457.73 634.5v-2h15.43v2zM457.73 634.5h-1.57l.84-1.8.05-.2h.68zM876.76 646.47l-14.26 4.64v-9.26z" fill="#0c7cba"/><path d="M880 646.47l-18.5 6v-12zm-16.5 3.26l10.03-3.26-10.03-3.26z" fill="#0c7cba"/><use xlink:href="#u" transform="matrix(1,0,0,1,473.1556715143219,622.6902919849847) translate(0 14.4)"/><use xlink:href="#v" transform="matrix(1,0,0,1,473.1556715143219,622.6902919849847) translate(47.95 14.4)"/><use xlink:href="#w" transform="matrix(1,0,0,1,725.6916666666666,705.6706969525692) translate(0 14.4)"/><use xlink:href="#v" transform="matrix(1,0,0,1,725.6916666666666,705.6706969525692) translate(57.95 14.4)"/><path d="M325.47 835h94.74V687.47" stroke="#0c7cba" stroke-width="2" fill="none"/><path d="M325.47 836h-2v-2h2z" fill="#0c7cba"/><path d="M420.2 672.47l4.65 14.26h-9.27z" stroke="#0c7cba" stroke-width="2" fill="#0c7cba"/><path d="M385.38 711H371v383.33h-45.53v-2H369V709h14.38v-26.8h2zM325.47 1094.33h-2v-2h2zM389.02 681.48h-9.27l4.63-14.27z" fill="#0c7cba"/><path d="M390.4 682.48h-12.03l6-18.5zm-9.28-2h6.52l-3.26-10.03zM1201 1241.76h-2V849.6h2zm0-413.77h-2V616.57h-197v-2h199zM1002 616.58h-3v-.54h1v-1.46h2zM1200 1256.76l-4.64-14.26h9.28z" fill="#0c7cba"/><path d="M1200 1260l-6-18.5h12zm-3.26-16.5l3.26 10.03 3.26-10.03z" fill="#0c7cba"/><use xlink:href="#x" transform="matrix(1,0,0,1,1148.05,827.9909040318402) translate(0 14.4)"/><path d="M504.83 429c-8.28 0-15-6.27-15-14 0-6.2 4.06-11.4 10.37-13.3-.37-18.2 24.63-21.7 34.63-14.7 5-10.5 30-7 30 3.5 15-3.5 30 10.5 20 28 10 14 0 31.5-20 24.5-5 9.1-25 9.1-30 0-10 7-30 3.5-30-14z" stroke="#0c7cba" stroke-width="2" fill="#fff"/><use xlink:href="#y" transform="matrix(1,0,0,1,494.8331855956144,385) translate(16.525 22.799999999999997)"/><use xlink:href="#z" transform="matrix(1,0,0,1,494.8331855956144,385) translate(9.049999999999997 44.4)"/><path d="M540.83 363.06h-2v-36.48h2zm0-58.08h-2V281H480v-2h60.83zM539.83 378.06l-4.63-14.27h9.27z" fill="#3d4752"/><path d="M539.83 381.3l-6-18.5h12zm-3.26-16.5l3.26 10.02 3.26-10.03z" fill="#3d4752"/><use xlink:href="#A" transform="matrix(1,0,0,1,491.4331855956144,304.9777777777778) translate(0 14.4)"/><path d="M540.83 549.44h18.93v2h-20.93V511.9h2zm0-59.13h-2v-41.6h2zM540.5 447.93l.33.12v.65h-2V447zM574.76 550.44l-14.26 4.64v-9.27z" fill="#0c7cba"/><path d="M578 550.44l-18.5 6.02v-12.03zm-16.5 3.26l10.03-3.26-10.03-3.25z" fill="#0c7cba"/><use xlink:href="#B" transform="matrix(1,0,0,1,497.6081855956144,490.31111111111113) translate(0 14.4)"/><use xlink:href="#t" transform="matrix(1,0,0,1,497.6081855956144,490.31111111111113) translate(46.5 14.4)"/><path d="M451 577.44h108.76v2H449v-52.86h2zm-40-149.22h40v76.76h-2v-74.76h-40V327.47h2zM480 281h-69v24.87h-2V279h71zM574.76 578.44l-14.26 4.64v-9.27z" fill="#3d4752"/><path d="M578 578.44l-18.5 6.02v-12.03zm-16.5 3.26l10.03-3.26-10.03-3.25z" fill="#3d4752"/><use xlink:href="#C" transform="matrix(1,0,0,1,364.6,305.8666666666667) translate(0 14.4)"/><use xlink:href="#B" transform="matrix(1,0,0,1,414.75,504.9777777777778) translate(0 14.4)"/><use xlink:href="#v" transform="matrix(1,0,0,1,414.75,504.9777777777778) translate(46.5 14.4)"/><path d="M420 160h100v29.33H420z" fill="none"/><g><use xlink:href="#D" transform="matrix(1,0,0,1,420,160) translate(37.0679012345679 19.444444444444443)"/></g><path d="M760 160h100v29.33H760z" fill="none"/><g><use xlink:href="#E" transform="matrix(1,0,0,1,760,160) translate(37.0679012345679 19.444444444444443)"/></g><path d="M1080 160h100v29.33h-100z" fill="none"/><g><use xlink:href="#F" transform="matrix(1,0,0,1,1080,160) translate(37.0679012345679 19.444444444444443)"/></g><path d="M1360 160h100v29.33h-100z" fill="none"/><g><use xlink:href="#G" transform="matrix(1,0,0,1,1360,160) translate(37.0679012345679 19.444444444444443)"/></g><defs><path d="M212-179c-10-28-35-45-73-45-59 0-87 40-87 99 0 60 29 101 89 101 43 0 62-24 78-52l27 14C228-24 195 4 139 4 59 4 22-46 18-125c-6-104 99-153 187-111 19 9 31 26 39 46" id="H"/><path d="M100-194c62-1 85 37 85 99 1 63-27 99-86 99S16-35 15-95c0-66 28-99 85-99zM99-20c44 1 53-31 53-75 0-43-8-75-51-75s-53 32-53 75 10 74 51 75" id="I"/><path d="M84 4C-5 8 30-112 23-190h32v120c0 31 7 50 39 49 72-2 45-101 50-169h31l1 190h-30c-1-10 1-25-2-33-11 22-28 36-60 37" id="J"/><path d="M117-194c89-4 53 116 60 194h-32v-121c0-31-8-49-39-48C34-167 62-67 57 0H25l-1-190h30c1 10-1 24 2 32 11-22 29-35 61-36" id="K"/><path d="M59-47c-2 24 18 29 38 22v24C64 9 27 4 27-40v-127H5v-23h24l9-43h21v43h35v23H59v120" id="L"/><path d="M100-194c63 0 86 42 84 106H49c0 40 14 67 53 68 26 1 43-12 49-29l28 8c-11 28-37 45-77 45C44 4 14-33 15-96c1-61 26-98 85-98zm52 81c6-60-76-77-97-28-3 7-6 17-6 28h103" id="M"/><path d="M114-163C36-179 61-72 57 0H25l-1-190h30c1 12-1 29 2 39 6-27 23-49 58-41v29" id="N"/><g id="a"><use transform="matrix(0.05,0,0,0.05,0,0)" xlink:href="#H"/><use transform="matrix(0.05,0,0,0.05,12.950000000000001,0)" xlink:href="#I"/><use transform="matrix(0.05,0,0,0.05,22.950000000000003,0)" xlink:href="#J"/><use transform="matrix(0.05,0,0,0.05,32.95,0)" xlink:href="#K"/><use transform="matrix(0.05,0,0,0.05,42.95,0)" xlink:href="#L"/><use transform="matrix(0.05,0,0,0.05,47.95,0)" xlink:href="#M"/><use transform="matrix(0.05,0,0,0.05,57.95,0)" xlink:href="#N"/></g><path d="M127-220V0H93v-220H8v-28h204v28h-85" id="O"/><path d="M141-36C126-15 110 5 73 4 37 3 15-17 15-53c-1-64 63-63 125-63 3-35-9-54-41-54-24 1-41 7-42 31l-33-3c5-37 33-52 76-52 45 0 72 20 72 64v82c-1 20 7 32 28 27v20c-31 9-61-2-59-35zM48-53c0 20 12 33 32 33 41-3 63-29 60-74-43 2-92-5-92 41" id="P"/><path d="M115-194c53 0 69 39 70 98 0 66-23 100-70 100C84 3 66-7 56-30L54 0H23l1-261h32v101c10-23 28-34 59-34zm-8 174c40 0 45-34 45-75 0-40-5-75-45-74-42 0-51 32-51 76 0 43 10 73 51 73" id="Q"/><path d="M24 0v-261h32V0H24" id="R"/><g id="b"><use transform="matrix(0.05,0,0,0.05,0,0)" xlink:href="#O"/><use transform="matrix(0.05,0,0,0.05,8.950000000000001,0)" xlink:href="#P"/><use transform="matrix(0.05,0,0,0.05,18.950000000000003,0)" xlink:href="#Q"/><use transform="matrix(0.05,0,0,0.05,28.950000000000003,0)" xlink:href="#R"/><use transform="matrix(0.05,0,0,0.05,32.900000000000006,0)" xlink:href="#M"/></g><path fill="#c92d39" d="M63-220v92h138v28H63V0H30v-248h175v28H63" id="S"/><path fill="#c92d39" d="M101-251c68 0 85 55 85 127S166 4 100 4C33 4 14-52 14-124c0-73 17-127 87-127zm-1 229c47 0 54-49 54-102s-4-102-53-102c-51 0-55 48-55 102 0 53 5 102 54 102" id="T"/><g id="c"><use transform="matrix(0.06172839506172839,0,0,0.06172839506172839,0,0)" xlink:href="#S"/><use transform="matrix(0.06172839506172839,0,0,0.06172839506172839,13.518518518518517,0)" xlink:href="#T"/></g><path fill="#0c7cba" d="M143 4C61 4 22-44 18-125c-5-107 100-154 193-111 17 8 29 25 37 43l-32 9c-13-25-37-40-76-40-61 0-88 39-88 99 0 61 29 100 91 101 35 0 62-11 79-27v-45h-74v-28h105v86C228-13 192 4 143 4" id="U"/><path fill="#0c7cba" d="M185-189c-5-48-123-54-124 2 14 75 158 14 163 119 3 78-121 87-175 55-17-10-28-26-33-46l33-7c5 56 141 63 141-1 0-78-155-14-162-118-5-82 145-84 179-34 5 7 8 16 11 25" id="V"/><path fill="#0c7cba" d="M106-169C34-169 62-67 57 0H25v-261h32l-1 103c12-21 28-36 61-36 89 0 53 116 60 194h-32v-121c2-32-8-49-39-48" id="W"/><path fill="#0c7cba" d="M141-36C126-15 110 5 73 4 37 3 15-17 15-53c-1-64 63-63 125-63 3-35-9-54-41-54-24 1-41 7-42 31l-33-3c5-37 33-52 76-52 45 0 72 20 72 64v82c-1 20 7 32 28 27v20c-31 9-61-2-59-35zM48-53c0 20 12 33 32 33 41-3 63-29 60-74-43 2-92-5-92 41" id="X"/><path fill="#0c7cba" d="M114-163C36-179 61-72 57 0H25l-1-190h30c1 12-1 29 2 39 6-27 23-49 58-41v29" id="Y"/><path fill="#0c7cba" d="M100-194c63 0 86 42 84 106H49c0 40 14 67 53 68 26 1 43-12 49-29l28 8c-11 28-37 45-77 45C44 4 14-33 15-96c1-61 26-98 85-98zm52 81c6-60-76-77-97-28-3 7-6 17-6 28h103" id="Z"/><g id="d"><use transform="matrix(0.08641975308641976,0,0,0.08641975308641976,0,0)" xlink:href="#U"/><use transform="matrix(0.08641975308641976,0,0,0.08641975308641976,24.19753086419753,0)" xlink:href="#V"/><use transform="matrix(0.08641975308641976,0,0,0.08641975308641976,44.93827160493828,0)" xlink:href="#W"/><use transform="matrix(0.08641975308641976,0,0,0.08641975308641976,62.22222222222223,0)" xlink:href="#X"/><use transform="matrix(0.08641975308641976,0,0,0.08641975308641976,79.50617283950618,0)" xlink:href="#Y"/><use transform="matrix(0.08641975308641976,0,0,0.08641975308641976,89.79012345679013,0)" xlink:href="#Z"/></g><path fill="#0c7cba" d="M30-248c87 1 191-15 191 75 0 78-77 80-158 76V0H30v-248zm33 125c57 0 124 11 124-50 0-59-68-47-124-48v98" id="aa"/><path fill="#0c7cba" d="M85-194c31 0 48 13 60 33l-1-100h32l1 261h-30c-2-10 0-23-3-31C134-8 116 4 85 4 32 4 16-35 15-94c0-66 23-100 70-100zm9 24c-40 0-46 34-46 75 0 40 6 74 45 74 42 0 51-32 51-76 0-42-9-74-50-73" id="ab"/><path fill="#0c7cba" d="M24-231v-30h32v30H24zM24 0v-190h32V0H24" id="ac"/><path fill="#0c7cba" d="M96-169c-40 0-48 33-48 73s9 75 48 75c24 0 41-14 43-38l32 2c-6 37-31 61-74 61-59 0-76-41-82-99-10-93 101-131 147-64 4 7 5 14 7 22l-32 3c-4-21-16-35-41-35" id="ad"/><path fill="#0c7cba" d="M59-47c-2 24 18 29 38 22v24C64 9 27 4 27-40v-127H5v-23h24l9-43h21v43h35v23H59v120" id="ae"/><path fill="#0c7cba" d="M100-194c62-1 85 37 85 99 1 63-27 99-86 99S16-35 15-95c0-66 28-99 85-99zM99-20c44 1 53-31 53-75 0-43-8-75-51-75s-53 32-53 75 10 74 51 75" id="af"/><g id="e"><use transform="matrix(0.08641975308641976,0,0,0.08641975308641976,0,0)" xlink:href="#aa"/><use transform="matrix(0.08641975308641976,0,0,0.08641975308641976,20.740740740740744,0)" xlink:href="#Y"/><use transform="matrix(0.08641975308641976,0,0,0.08641975308641976,31.024691358024693,0)" xlink:href="#Z"/><use transform="matrix(0.08641975308641976,0,0,0.08641975308641976,48.308641975308646,0)" xlink:href="#ab"/><use transform="matrix(0.08641975308641976,0,0,0.08641975308641976,65.5925925925926,0)" xlink:href="#ac"/><use transform="matrix(0.08641975308641976,0,0,0.08641975308641976,72.41975308641976,0)" xlink:href="#ad"/><use transform="matrix(0.08641975308641976,0,0,0.08641975308641976,87.97530864197532,0)" xlink:href="#ae"/><use transform="matrix(0.08641975308641976,0,0,0.08641975308641976,96.61728395061729,0)" xlink:href="#af"/><use transform="matrix(0.08641975308641976,0,0,0.08641975308641976,113.90123456790124,0)" xlink:href="#Y"/></g><path d="M197 0v-115H63V0H30v-248h33v105h134v-105h34V0h-34" id="ag"/><path d="M135-143c-3-34-86-38-87 0 15 53 115 12 119 90S17 21 10-45l28-5c4 36 97 45 98 0-10-56-113-15-118-90-4-57 82-63 122-42 12 7 21 19 24 35" id="ah"/><path d="M106-169C34-169 62-67 57 0H25v-261h32l-1 103c12-21 28-36 61-36 89 0 53 116 60 194h-32v-121c2-32-8-49-39-48" id="ai"/><g id="f"><use transform="matrix(0.05,0,0,0.05,0,0)" xlink:href="#ag"/><use transform="matrix(0.05,0,0,0.05,12.950000000000001,0)" xlink:href="#P"/><use transform="matrix(0.05,0,0,0.05,22.950000000000003,0)" xlink:href="#ah"/><use transform="matrix(0.05,0,0,0.05,31.950000000000003,0)" xlink:href="#ai"/></g><filter id="g" filterUnits="objectBoundingBox" x="-.48" y="-.06" width="1.96" height="1.29"><feOffset result="offOut" in="SourceAlpha" dy="6"/><feGaussianBlur result="blurOut" in="offOut" stdDeviation="5"/><feColorMatrix result="colorOut" in="blurOut" values="0 0 0 0 0 0 0 0 0 0 0 0 0 0 0 0 0 0 0.16862745098039217 0"/><feBlend in="SourceGraphic" in2="colorOut"/></filter><filter id="h" filterUnits="objectBoundingBox" x="-.72" y="-.34" width="2.44" height="2.71"><feOffset result="offOut" in="SourceAlpha" dy="6"/><feGaussianBlur result="blurOut" in="offOut" stdDeviation="5"/><feColorMatrix result="colorOut" in="blurOut" values="0 0 0 0 0 0 0 0 0 0 0 0 0 0 0 0 0 0 0.16862745098039217 0"/><feBlend in="SourceGraphic" in2="colorOut"/></filter><filter id="i" filterUnits="objectBoundingBox" x="-.5" y="-.06" width="2" height="1.29"><feOffset result="offOut" in="SourceAlpha" dy="6"/><feGaussianBlur result="blurOut" in="offOut" stdDeviation="5"/><feColorMatrix result="colorOut" in="blurOut" values="0 0 0 0 0 0 0 0 0 0 0 0 0 0 0 0 0 0 0.16862745098039217 0"/><feBlend in="SourceGraphic" in2="colorOut"/></filter><path d="M233-177c-1 41-23 64-60 70L243 0h-38l-65-103H63V0H30v-248c88 3 205-21 203 71zM63-129c60-2 137 13 137-47 0-61-80-42-137-45v92" id="aj"/><path d="M145-31C134-9 116 4 85 4 32 4 16-35 15-94c0-59 17-99 70-100 32-1 48 14 60 33 0-11-1-24 2-32h30l-1 268h-32zM93-21c41 0 51-33 51-76s-8-73-50-73c-40 0-46 35-46 75s5 74 45 74" id="ak"/><path d="M33 0v-38h34V0H33" id="al"/><path d="M30-248c87 1 191-15 191 75 0 78-77 80-158 76V0H30v-248zm33 125c57 0 124 11 124-50 0-59-68-47-124-48v98" id="am"/><g id="k"><use transform="matrix(0.05,0,0,0.05,0,0)" xlink:href="#aj"/><use transform="matrix(0.05,0,0,0.05,12.950000000000001,0)" xlink:href="#M"/><use transform="matrix(0.05,0,0,0.05,22.950000000000003,0)" xlink:href="#ak"/><use transform="matrix(0.05,0,0,0.05,32.95,0)" xlink:href="#al"/><use transform="matrix(0.05,0,0,0.05,37.95,0)" xlink:href="#am"/><use transform="matrix(0.05,0,0,0.05,49.95,0)" xlink:href="#H"/></g><filter id="l" filterUnits="objectBoundingBox" x="-.5" y="-.06" width="2" height="1.29"><feOffset result="offOut" in="SourceAlpha" dy="6"/><feGaussianBlur result="blurOut" in="offOut" stdDeviation="5"/><feColorMatrix result="colorOut" in="blurOut" values="0 0 0 0 0 0 0 0 0 0 0 0 0 0 0 0 0 0 0.16862745098039217 0"/><feBlend in="SourceGraphic" in2="colorOut"/></filter><filter id="m" filterUnits="objectBoundingBox" x="-.5" y="-.05" width="2" height="1.24"><feOffset result="offOut" in="SourceAlpha" dy="6"/><feGaussianBlur result="blurOut" in="offOut" stdDeviation="5"/><feColorMatrix result="colorOut" in="blurOut" values="0 0 0 0 0 0 0 0 0 0 0 0 0 0 0 0 0 0 0.16862745098039217 0"/><feBlend in="SourceGraphic" in2="colorOut"/></filter><path d="M24-231v-30h32v30H24zM24 0v-190h32V0H24" id="an"/><path d="M179-190L93 31C79 59 56 82 12 73V49c39 6 53-20 64-50L1-190h34L92-34l54-156h33" id="ao"/><g id="n"><use transform="matrix(0.05,0,0,0.05,0,0)" xlink:href="#ag"/><use transform="matrix(0.05,0,0,0.05,12.950000000000001,0)" xlink:href="#an"/><use transform="matrix(0.05,0,0,0.05,16.900000000000002,0)" xlink:href="#ah"/><use transform="matrix(0.05,0,0,0.05,25.900000000000002,0)" xlink:href="#L"/><use transform="matrix(0.05,0,0,0.05,30.900000000000002,0)" xlink:href="#I"/><use transform="matrix(0.05,0,0,0.05,40.900000000000006,0)" xlink:href="#N"/><use transform="matrix(0.05,0,0,0.05,46.85000000000001,0)" xlink:href="#ao"/></g><path d="M115-194c55 1 70 41 70 98S169 2 115 4C84 4 66-9 55-30l1 105H24l-1-265h31l2 30c10-21 28-34 59-34zm-8 174c40 0 45-34 45-75s-6-73-45-74c-42 0-51 32-51 76 0 43 10 73 51 73" id="ap"/><g id="o"><use transform="matrix(0.05,0,0,0.05,0,0)" xlink:href="#aj"/><use transform="matrix(0.05,0,0,0.05,12.950000000000001,0)" xlink:href="#M"/><use transform="matrix(0.05,0,0,0.05,22.950000000000003,0)" xlink:href="#ah"/><use transform="matrix(0.05,0,0,0.05,31.950000000000003,0)" xlink:href="#ap"/><use transform="matrix(0.05,0,0,0.05,41.95,0)" xlink:href="#al"/><use transform="matrix(0.05,0,0,0.05,46.95,0)" xlink:href="#ag"/><use transform="matrix(0.05,0,0,0.05,59.900000000000006,0)" xlink:href="#an"/><use transform="matrix(0.05,0,0,0.05,63.85,0)" xlink:href="#ah"/><use transform="matrix(0.05,0,0,0.05,72.85000000000001,0)" xlink:href="#L"/><use transform="matrix(0.05,0,0,0.05,77.85000000000001,0)" xlink:href="#I"/><use transform="matrix(0.05,0,0,0.05,87.85000000000001,0)" xlink:href="#N"/><use transform="matrix(0.05,0,0,0.05,93.80000000000001,0)" xlink:href="#ao"/></g><path d="M63-220v92h138v28H63V0H30v-248h175v28H63" id="aq"/><path d="M140-251c81 0 123 46 123 126C263-53 228-8 163 1c7 30 30 48 69 40v23c-55 16-95-15-103-61C56-3 17-48 17-125c0-80 42-126 123-126zm0 227c63 0 89-41 89-101s-29-99-89-99c-61 0-89 39-89 99S79-25 140-24" id="ar"/><g id="p"><use transform="matrix(0.05,0,0,0.05,0,0)" xlink:href="#aq"/><use transform="matrix(0.05,0,0,0.05,10.950000000000001,0)" xlink:href="#O"/><use transform="matrix(0.05,0,0,0.05,21.900000000000002,0)" xlink:href="#ar"/></g><g id="q"><use transform="matrix(0.05,0,0,0.05,0,0)" xlink:href="#aj"/><use transform="matrix(0.05,0,0,0.05,12.950000000000001,0)" xlink:href="#M"/><use transform="matrix(0.05,0,0,0.05,22.950000000000003,0)" xlink:href="#ah"/><use transform="matrix(0.05,0,0,0.05,31.950000000000003,0)" xlink:href="#L"/><use transform="matrix(0.05,0,0,0.05,36.95,0)" xlink:href="#I"/><use transform="matrix(0.05,0,0,0.05,46.95,0)" xlink:href="#N"/><use transform="matrix(0.05,0,0,0.05,52.900000000000006,0)" xlink:href="#M"/></g><filter id="r" filterUnits="objectBoundingBox" x="-.1" y="-.03" width="1.19" height="1.13"><feOffset result="offOut" in="SourceAlpha" dy="6"/><feGaussianBlur result="blurOut" in="offOut" stdDeviation="5"/><feColorMatrix result="colorOut" in="blurOut" values="0 0 0 0 0 0 0 0 0 0 0 0 0 0 0 0 0 0 0.16862745098039217 0"/><feBlend in="SourceGraphic" in2="colorOut"/></filter><filter id="s" filterUnits="objectBoundingBox" x="-.5" y="-.06" width="2" height="1.3"><feOffset result="offOut" in="SourceAlpha" dy="6"/><feGaussianBlur result="blurOut" in="offOut" stdDeviation="5"/><feColorMatrix result="colorOut" in="blurOut" values="0 0 0 0 0 0 0 0 0 0 0 0 0 0 0 0 0 0 0.16862745098039217 0"/><feBlend in="SourceGraphic" in2="colorOut"/></filter><path d="M30-248c118-7 216 8 213 122C240-48 200 0 122 0H30v-248zM63-27c89 8 146-16 146-99s-60-101-146-95v194" id="as"/><g id="t"><use transform="matrix(0.05,0,0,0.05,0,0)" xlink:href="#as"/><use transform="matrix(0.05,0,0,0.05,12.950000000000001,0)" xlink:href="#P"/><use transform="matrix(0.05,0,0,0.05,22.950000000000003,0)" xlink:href="#L"/><use transform="matrix(0.05,0,0,0.05,27.950000000000003,0)" xlink:href="#P"/></g><path d="M85-194c31 0 48 13 60 33l-1-100h32l1 261h-30c-2-10 0-23-3-31C134-8 116 4 85 4 32 4 16-35 15-94c0-66 23-100 70-100zm9 24c-40 0-46 34-46 75 0 40 6 74 45 74 42 0 51-32 51-76 0-42-9-74-50-73" id="at"/><g id="u"><use transform="matrix(0.05,0,0,0.05,0,0)" xlink:href="#aj"/><use transform="matrix(0.05,0,0,0.05,12.950000000000001,0)" xlink:href="#M"/><use transform="matrix(0.05,0,0,0.05,22.950000000000003,0)" xlink:href="#P"/><use transform="matrix(0.05,0,0,0.05,32.95,0)" xlink:href="#at"/></g><path d="M33 0v-248h34V0H33" id="au"/><path d="M141 0L90-78 38 0H4l68-98-65-92h35l48 74 47-74h35l-64 92 68 98h-35" id="av"/><g id="v"><use transform="matrix(0.05,0,0,0.05,0,0)" xlink:href="#au"/><use transform="matrix(0.05,0,0,0.05,5,0)" xlink:href="#at"/><use transform="matrix(0.05,0,0,0.05,15,0)" xlink:href="#av"/></g><path d="M177-190C167-65 218 103 67 71c-23-6-38-20-44-43l32-5c15 47 100 32 89-28v-30C133-14 115 1 83 1 29 1 15-40 15-95c0-56 16-97 71-98 29-1 48 16 59 35 1-10 0-23 2-32h30zM94-22c36 0 50-32 50-73 0-42-14-75-50-75-39 0-46 34-46 75s6 73 46 73" id="aw"/><g id="w"><use transform="matrix(0.05,0,0,0.05,0,0)" xlink:href="#as"/><use transform="matrix(0.05,0,0,0.05,12.950000000000001,0)" xlink:href="#M"/><use transform="matrix(0.05,0,0,0.05,22.950000000000003,0)" xlink:href="#Q"/><use transform="matrix(0.05,0,0,0.05,32.95,0)" xlink:href="#J"/><use transform="matrix(0.05,0,0,0.05,42.95,0)" xlink:href="#aw"/></g><path d="M143 0L79-87 56-68V0H24v-261h32v163l83-92h37l-77 82L181 0h-38" id="ax"/><g id="x"><use transform="matrix(0.05,0,0,0.05,0,0)" xlink:href="#aj"/><use transform="matrix(0.05,0,0,0.05,12.950000000000001,0)" xlink:href="#M"/><use transform="matrix(0.05,0,0,0.05,22.950000000000003,0)" xlink:href="#ah"/><use transform="matrix(0.05,0,0,0.05,31.950000000000003,0)" xlink:href="#ap"/><use transform="matrix(0.05,0,0,0.05,41.95,0)" xlink:href="#al"/><use transform="matrix(0.05,0,0,0.05,46.95,0)" xlink:href="#O"/><use transform="matrix(0.05,0,0,0.05,55.900000000000006,0)" xlink:href="#P"/><use transform="matrix(0.05,0,0,0.05,65.9,0)" xlink:href="#ax"/><use transform="matrix(0.05,0,0,0.05,74.9,0)" xlink:href="#M"/><use transform="matrix(0.05,0,0,0.05,84.9,0)" xlink:href="#K"/><use transform="matrix(0.05,0,0,0.05,94.9,0)" xlink:href="#ah"/></g><path d="M232-93c-1 65-40 97-104 97C67 4 28-28 28-90v-158h33c8 89-33 224 67 224 102 0 64-133 71-224h33v155" id="ay"/><g id="y"><use transform="matrix(0.05,0,0,0.05,0,0)" xlink:href="#ay"/><use transform="matrix(0.05,0,0,0.05,12.950000000000001,0)" xlink:href="#ap"/><use transform="matrix(0.05,0,0,0.05,22.950000000000003,0)" xlink:href="#at"/><use transform="matrix(0.05,0,0,0.05,32.95,0)" xlink:href="#P"/><use transform="matrix(0.05,0,0,0.05,42.95,0)" xlink:href="#L"/><use transform="matrix(0.05,0,0,0.05,47.95,0)" xlink:href="#M"/></g><g id="z"><use transform="matrix(0.05,0,0,0.05,0,0)" xlink:href="#H"/><use transform="matrix(0.05,0,0,0.05,12.950000000000001,0)" xlink:href="#I"/><use transform="matrix(0.05,0,0,0.05,22.950000000000003,0)" xlink:href="#J"/><use transform="matrix(0.05,0,0,0.05,32.95,0)" xlink:href="#K"/><use transform="matrix(0.05,0,0,0.05,42.95,0)" xlink:href="#L"/><use transform="matrix(0.05,0,0,0.05,47.95,0)" xlink:href="#M"/><use transform="matrix(0.05,0,0,0.05,57.95,0)" xlink:href="#N"/><use transform="matrix(0.05,0,0,0.05,63.900000000000006,0)" xlink:href="#ah"/></g><path d="M210-169c-67 3-38 105-44 169h-31v-121c0-29-5-50-35-48C34-165 62-65 56 0H25l-1-190h30c1 10-1 24 2 32 10-44 99-50 107 0 11-21 27-35 58-36 85-2 47 119 55 194h-31v-121c0-29-5-49-35-48" id="az"/><path d="M101-234c-31-9-42 10-38 44h38v23H63V0H32v-167H5v-23h27c-7-52 17-82 69-68v24" id="aA"/><g id="A"><use transform="matrix(0.05,0,0,0.05,0,0)" xlink:href="#H"/><use transform="matrix(0.05,0,0,0.05,12.950000000000001,0)" xlink:href="#I"/><use transform="matrix(0.05,0,0,0.05,22.950000000000003,0)" xlink:href="#az"/><use transform="matrix(0.05,0,0,0.05,37.900000000000006,0)" xlink:href="#az"/><use transform="matrix(0.05,0,0,0.05,52.85,0)" xlink:href="#an"/><use transform="matrix(0.05,0,0,0.05,56.80000000000001,0)" xlink:href="#L"/><use transform="matrix(0.05,0,0,0.05,61.80000000000001,0)" xlink:href="#al"/><use transform="matrix(0.05,0,0,0.05,66.80000000000001,0)" xlink:href="#au"/><use transform="matrix(0.05,0,0,0.05,71.80000000000001,0)" xlink:href="#K"/><use transform="matrix(0.05,0,0,0.05,81.80000000000001,0)" xlink:href="#aA"/><use transform="matrix(0.05,0,0,0.05,86.80000000000001,0)" xlink:href="#I"/></g><path d="M266 0h-40l-56-210L115 0H75L2-248h35L96-30l15-64 43-154h32l59 218 59-218h35" id="aB"/><g id="B"><use transform="matrix(0.05,0,0,0.05,0,0)" xlink:href="#aB"/><use transform="matrix(0.05,0,0,0.05,16.599999999999998,0)" xlink:href="#N"/><use transform="matrix(0.05,0,0,0.05,22.549999999999997,0)" xlink:href="#an"/><use transform="matrix(0.05,0,0,0.05,26.499999999999996,0)" xlink:href="#L"/><use transform="matrix(0.05,0,0,0.05,31.499999999999996,0)" xlink:href="#M"/></g><g id="C"><use transform="matrix(0.05,0,0,0.05,0,0)" xlink:href="#H"/><use transform="matrix(0.05,0,0,0.05,12.950000000000001,0)" xlink:href="#I"/><use transform="matrix(0.05,0,0,0.05,22.950000000000003,0)" xlink:href="#az"/><use transform="matrix(0.05,0,0,0.05,37.900000000000006,0)" xlink:href="#az"/><use transform="matrix(0.05,0,0,0.05,52.85,0)" xlink:href="#an"/><use transform="matrix(0.05,0,0,0.05,56.80000000000001,0)" xlink:href="#L"/><use transform="matrix(0.05,0,0,0.05,61.80000000000001,0)" xlink:href="#al"/><use transform="matrix(0.05,0,0,0.05,66.80000000000001,0)" xlink:href="#au"/><use transform="matrix(0.05,0,0,0.05,71.80000000000001,0)" xlink:href="#at"/><use transform="matrix(0.05,0,0,0.05,81.80000000000001,0)" xlink:href="#av"/></g><path fill="#c92d39" d="M27 0v-27h64v-190l-56 39v-29l58-41h29v221h61V0H27" id="aC"/><g id="D"><use transform="matrix(0.06172839506172839,0,0,0.06172839506172839,0,0)" xlink:href="#S"/><use transform="matrix(0.06172839506172839,0,0,0.06172839506172839,13.518518518518517,0)" xlink:href="#aC"/></g><path fill="#c92d39" d="M101-251c82-7 93 87 43 132L82-64C71-53 59-42 53-27h129V0H18c2-99 128-94 128-182 0-28-16-43-45-43s-46 15-49 41l-32-3c6-41 34-60 81-64" id="aD"/><g id="E"><use transform="matrix(0.06172839506172839,0,0,0.06172839506172839,0,0)" xlink:href="#S"/><use transform="matrix(0.06172839506172839,0,0,0.06172839506172839,13.518518518518517,0)" xlink:href="#aD"/></g><path fill="#c92d39" d="M126-127c33 6 58 20 58 59 0 88-139 92-164 29-3-8-5-16-6-25l32-3c6 27 21 44 54 44 32 0 52-15 52-46 0-38-36-46-79-43v-28c39 1 72-4 72-42 0-27-17-43-46-43-28 0-47 15-49 41l-32-3c6-42 35-63 81-64 48-1 79 21 79 65 0 36-21 52-52 59" id="aE"/><g id="F"><use transform="matrix(0.06172839506172839,0,0,0.06172839506172839,0,0)" xlink:href="#S"/><use transform="matrix(0.06172839506172839,0,0,0.06172839506172839,13.518518518518517,0)" xlink:href="#aE"/></g><path fill="#c92d39" d="M155-56V0h-30v-56H8v-25l114-167h33v167h35v25h-35zm-30-156c-27 46-58 90-88 131h88v-131" id="aF"/><g id="G"><use transform="matrix(0.06172839506172839,0,0,0.06172839506172839,0,0)" xlink:href="#S"/><use transform="matrix(0.06172839506172839,0,0,0.06172839506172839,13.518518518518517,0)" xlink:href="#aF"/></g></defs></g></svg>