<svg xmlns="http://www.w3.org/2000/svg" xmlns:xlink="http://www.w3.org/1999/xlink" xmlns:lucid="lucid" width="1052.83" height="522"><g transform="translate(-249 -569)" lucid:page-tab-id="0_0"><path d="M346.17 600H408v20.56h-61.83z" fill="none"/><use xlink:href="#a" transform="matrix(1,0,0,1,346.1710914454277,600) translate(20.525 14.4)"/><path d="M404.76 910h-49V750" stroke="#000" stroke-width="2" fill="none"/><path d="M419.76 910l-14.26 4.64v-9.28z" stroke="#000" stroke-width="2"/><path d="M484 1020V580M720 1020V580M940 1020V580M1160 1020V580" stroke="#c92d39" stroke-width="2" fill="none"/><path d="M424 700h776v100H424z" stroke="#000" stroke-width="2" fill="#fff"/><use xlink:href="#b" transform="matrix(1,0,0,1,429,705) translate(311.6 48.6)"/><use xlink:href="#c" transform="matrix(1,0,0,1,429,705) translate(382.55 48.6)"/><path d="M424 860h360v100H424z" stroke="#000" stroke-width="2" fill="#fff"/><use xlink:href="#d" transform="matrix(1,0,0,1,429,865) translate(157.525 48.6)"/><path d="M299.52 751H260v-2h39.52zm105.24 0h-72.28v-2h72.28zM419.76 750l-14.26 4.64v-9.28z"/><path d="M423 750l-18.5 6v-12zm-16.5 3.26l10.03-3.26-10.03-3.26z"/><use xlink:href="#e" transform="matrix(1,0,0,1,299.525,739.2) translate(0 14.4)"/><path d="M851 911h-66v-2h64v-32.2h2zm-14-71h14v15.2h-2V842h-14v-22.76h2zM785 911h-1v-2h1zM840.64 818.5h-9.28l4.64-14.26z"/><path d="M842 819.5h-12l6-18.5zm-9.26-2h6.52L836 807.47z"/><use xlink:href="#f" transform="matrix(1,0,0,1,810.55,855.2) translate(0 14.4)"/><use xlink:href="#g" transform="matrix(1,0,0,1,810.55,855.2) translate(36.95 14.4)"/><path d="M841 1041.76h-2v-13.6h2zm0-35.2h-2V911h-54v-2h56zM785 911h-1v-2h1zM840 1056.76l-4.64-14.26h9.28z"/><path d="M840 1060l-6-18.5h12zm-3.26-16.5l3.26 10.03 3.26-10.03z"/><use xlink:href="#h" transform="matrix(1,0,0,1,799.05,1006.5500379650722) translate(0 14.4)"/><use xlink:href="#g" transform="matrix(1,0,0,1,799.05,1006.5500379650722) translate(39.95 14.4)"/><path d="M1058.33 1041.76h-2V911h2zm0-152.37h-2V801h2zM1058.33 801h-2v-1h2zM1057.33 1056.76l-4.63-14.26h9.27z"/><path d="M1057.33 1060l-6-18.5h12.02zm-3.26-16.5l3.26 10.03 3.26-10.03z"/><use xlink:href="#i" transform="matrix(1,0,0,1,1015.3833333333332,889.3949099937923) translate(0 14.4)"/><use xlink:href="#g" transform="matrix(1,0,0,1,1015.3833333333332,889.3949099937923) translate(41.95 14.4)"/><path d="M605 1060h-2v-31.2h2zm0-52.8h-2v-27.96h2zM608.64 978.5h-9.28l4.64-14.26z"/><path d="M610 979.5h-12l6-18.5zm-9.26-2h6.52L604 967.47z"/><use xlink:href="#j" transform="matrix(1,0,0,1,554.05,1007.2) translate(0 14.4)"/><use xlink:href="#k" transform="matrix(1,0,0,1,554.05,1007.2) translate(41.95 14.4)"/><path d="M800 600h61.83v20.56H800z" fill="none"/><use xlink:href="#l" transform="matrix(1,0,0,1,800,600) translate(20.525 14.4)"/><path d="M1020 600h61.83v20.56H1020z" fill="none"/><use xlink:href="#m" transform="matrix(1,0,0,1,1020,600) translate(20.525 14.4)"/><path d="M1220 600h61.83v20.56H1220z" fill="none"/><g><use xlink:href="#n" transform="matrix(1,0,0,1,1220,600) translate(20.525 14.4)"/></g><path d="M573.1 600h61.8v20.56h-61.8z" fill="none"/><g><use xlink:href="#o" transform="matrix(1,0,0,1,573.0855457227138,600) translate(20.525 14.4)"/></g><defs><path fill="#c92d39" d="M63-220v92h138v28H63V0H30v-248h175v28H63" id="p"/><path fill="#c92d39" d="M101-251c68 0 85 55 85 127S166 4 100 4C33 4 14-52 14-124c0-73 17-127 87-127zm-1 229c47 0 54-49 54-102s-4-102-53-102c-51 0-55 48-55 102 0 53 5 102 54 102" id="q"/><g id="a"><use transform="matrix(0.05,0,0,0.05,0,0)" xlink:href="#p"/><use transform="matrix(0.05,0,0,0.05,10.950000000000001,0)" xlink:href="#q"/></g><path d="M205 0l-28-72H64L36 0H1l101-248h38L239 0h-34zm-38-99l-47-123c-12 45-31 82-46 123h93" id="r"/><path d="M115-194c53 0 69 39 70 98 0 66-23 100-70 100C84 3 66-7 56-30L54 0H23l1-261h32v101c10-23 28-34 59-34zm-8 174c40 0 45-34 45-75 0-40-5-75-45-74-42 0-51 32-51 76 0 43 10 73 51 73" id="s"/><path d="M135-143c-3-34-86-38-87 0 15 53 115 12 119 90S17 21 10-45l28-5c4 36 97 45 98 0-10-56-113-15-118-90-4-57 82-63 122-42 12 7 21 19 24 35" id="t"/><path d="M59-47c-2 24 18 29 38 22v24C64 9 27 4 27-40v-127H5v-23h24l9-43h21v43h35v23H59v120" id="u"/><path d="M114-163C36-179 61-72 57 0H25l-1-190h30c1 12-1 29 2 39 6-27 23-49 58-41v29" id="v"/><path d="M141-36C126-15 110 5 73 4 37 3 15-17 15-53c-1-64 63-63 125-63 3-35-9-54-41-54-24 1-41 7-42 31l-33-3c5-37 33-52 76-52 45 0 72 20 72 64v82c-1 20 7 32 28 27v20c-31 9-61-2-59-35zM48-53c0 20 12 33 32 33 41-3 63-29 60-74-43 2-92-5-92 41" id="w"/><path d="M96-169c-40 0-48 33-48 73s9 75 48 75c24 0 41-14 43-38l32 2c-6 37-31 61-74 61-59 0-76-41-82-99-10-93 101-131 147-64 4 7 5 14 7 22l-32 3c-4-21-16-35-41-35" id="x"/><g id="b"><use transform="matrix(0.05,0,0,0.05,0,0)" xlink:href="#r"/><use transform="matrix(0.05,0,0,0.05,12,0)" xlink:href="#s"/><use transform="matrix(0.05,0,0,0.05,22,0)" xlink:href="#t"/><use transform="matrix(0.05,0,0,0.05,31,0)" xlink:href="#u"/><use transform="matrix(0.05,0,0,0.05,36,0)" xlink:href="#v"/><use transform="matrix(0.05,0,0,0.05,41.95,0)" xlink:href="#w"/><use transform="matrix(0.05,0,0,0.05,51.95,0)" xlink:href="#x"/><use transform="matrix(0.05,0,0,0.05,60.95,0)" xlink:href="#u"/></g><path d="M30-248c87 1 191-15 191 75 0 78-77 80-158 76V0H30v-248zm33 125c57 0 124 11 124-50 0-59-68-47-124-48v98" id="y"/><path d="M100-194c63 0 86 42 84 106H49c0 40 14 67 53 68 26 1 43-12 49-29l28 8c-11 28-37 45-77 45C44 4 14-33 15-96c1-61 26-98 85-98zm52 81c6-60-76-77-97-28-3 7-6 17-6 28h103" id="z"/><path d="M85-194c31 0 48 13 60 33l-1-100h32l1 261h-30c-2-10 0-23-3-31C134-8 116 4 85 4 32 4 16-35 15-94c0-66 23-100 70-100zm9 24c-40 0-46 34-46 75 0 40 6 74 45 74 42 0 51-32 51-76 0-42-9-74-50-73" id="A"/><path d="M24-231v-30h32v30H24zM24 0v-190h32V0H24" id="B"/><path d="M100-194c62-1 85 37 85 99 1 63-27 99-86 99S16-35 15-95c0-66 28-99 85-99zM99-20c44 1 53-31 53-75 0-43-8-75-51-75s-53 32-53 75 10 74 51 75" id="C"/><g id="c"><use transform="matrix(0.05,0,0,0.05,0,0)" xlink:href="#y"/><use transform="matrix(0.05,0,0,0.05,12,0)" xlink:href="#v"/><use transform="matrix(0.05,0,0,0.05,17.95,0)" xlink:href="#z"/><use transform="matrix(0.05,0,0,0.05,27.950000000000003,0)" xlink:href="#A"/><use transform="matrix(0.05,0,0,0.05,37.95,0)" xlink:href="#B"/><use transform="matrix(0.05,0,0,0.05,41.900000000000006,0)" xlink:href="#x"/><use transform="matrix(0.05,0,0,0.05,50.900000000000006,0)" xlink:href="#u"/><use transform="matrix(0.05,0,0,0.05,55.900000000000006,0)" xlink:href="#C"/><use transform="matrix(0.05,0,0,0.05,65.9,0)" xlink:href="#v"/></g><path d="M160-131c35 5 61 23 61 61C221 17 115-2 30 0v-248c76 3 177-17 177 60 0 33-19 50-47 57zm-97-11c50-1 110 9 110-42 0-47-63-36-110-37v79zm0 115c55-2 124 14 124-45 0-56-70-42-124-44v89" id="D"/><path d="M127-220V0H93v-220H8v-28h204v28h-85" id="E"/><g id="d"><use transform="matrix(0.05,0,0,0.05,0,0)" xlink:href="#D"/><use transform="matrix(0.05,0,0,0.05,12,0)" xlink:href="#E"/><use transform="matrix(0.05,0,0,0.05,22.950000000000003,0)" xlink:href="#D"/></g><path d="M233-177c-1 41-23 64-60 70L243 0h-38l-65-103H63V0H30v-248c88 3 205-21 203 71zM63-129c60-2 137 13 137-47 0-61-80-42-137-45v92" id="F"/><path d="M145-31C134-9 116 4 85 4 32 4 16-35 15-94c0-59 17-99 70-100 32-1 48 14 60 33 0-11-1-24 2-32h30l-1 268h-32zM93-21c41 0 51-33 51-76s-8-73-50-73c-40 0-46 35-46 75s5 74 45 74" id="G"/><g id="e"><use transform="matrix(0.05,0,0,0.05,0,0)" xlink:href="#F"/><use transform="matrix(0.05,0,0,0.05,12.950000000000001,0)" xlink:href="#z"/><use transform="matrix(0.05,0,0,0.05,22.950000000000003,0)" xlink:href="#G"/></g><path d="M33 0v-248h34V0H33" id="H"/><path d="M240 0l2-218c-23 76-54 145-80 218h-23L58-218 59 0H30v-248h44l77 211c21-75 51-140 76-211h43V0h-30" id="I"/><g id="f"><use transform="matrix(0.05,0,0,0.05,0,0)" xlink:href="#D"/><use transform="matrix(0.05,0,0,0.05,12,0)" xlink:href="#H"/><use transform="matrix(0.05,0,0,0.05,17,0)" xlink:href="#I"/></g><path d="M115-194c55 1 70 41 70 98S169 2 115 4C84 4 66-9 55-30l1 105H24l-1-265h31l2 30c10-21 28-34 59-34zm-8 174c40 0 45-34 45-75s-6-73-45-74c-42 0-51 32-51 76 0 43 10 73 51 73" id="J"/><g id="g"><use transform="matrix(0.05,0,0,0.05,0,0)" xlink:href="#F"/><use transform="matrix(0.05,0,0,0.05,12.950000000000001,0)" xlink:href="#z"/><use transform="matrix(0.05,0,0,0.05,22.950000000000003,0)" xlink:href="#t"/><use transform="matrix(0.05,0,0,0.05,31.950000000000003,0)" xlink:href="#J"/></g><g id="h"><use transform="matrix(0.05,0,0,0.05,0,0)" xlink:href="#D"/><use transform="matrix(0.05,0,0,0.05,12,0)" xlink:href="#E"/><use transform="matrix(0.05,0,0,0.05,22.950000000000003,0)" xlink:href="#D"/></g><path d="M30-248c118-7 216 8 213 122C240-48 200 0 122 0H30v-248zM63-27c89 8 146-16 146-99s-60-101-146-95v194" id="K"/><g id="i"><use transform="matrix(0.05,0,0,0.05,0,0)" xlink:href="#D"/><use transform="matrix(0.05,0,0,0.05,12,0)" xlink:href="#y"/><use transform="matrix(0.05,0,0,0.05,24,0)" xlink:href="#K"/></g><path d="M185-189c-5-48-123-54-124 2 14 75 158 14 163 119 3 78-121 87-175 55-17-10-28-26-33-46l33-7c5 56 141 63 141-1 0-78-155-14-162-118-5-82 145-84 179-34 5 7 8 16 11 25" id="L"/><g id="j"><use transform="matrix(0.05,0,0,0.05,0,0)" xlink:href="#F"/><use transform="matrix(0.05,0,0,0.05,12.950000000000001,0)" xlink:href="#r"/><use transform="matrix(0.05,0,0,0.05,24.950000000000003,0)" xlink:href="#L"/></g><path d="M232-93c-1 65-40 97-104 97C67 4 28-28 28-90v-158h33c8 89-33 224 67 224 102 0 64-133 71-224h33v155" id="M"/><g id="k"><use transform="matrix(0.05,0,0,0.05,0,0)" xlink:href="#M"/><use transform="matrix(0.05,0,0,0.05,12.950000000000001,0)" xlink:href="#J"/><use transform="matrix(0.05,0,0,0.05,22.950000000000003,0)" xlink:href="#A"/><use transform="matrix(0.05,0,0,0.05,32.95,0)" xlink:href="#w"/><use transform="matrix(0.05,0,0,0.05,42.95,0)" xlink:href="#u"/><use transform="matrix(0.05,0,0,0.05,47.95,0)" xlink:href="#z"/></g><path fill="#c92d39" d="M101-251c82-7 93 87 43 132L82-64C71-53 59-42 53-27h129V0H18c2-99 128-94 128-182 0-28-16-43-45-43s-46 15-49 41l-32-3c6-41 34-60 81-64" id="N"/><g id="l"><use transform="matrix(0.05,0,0,0.05,0,0)" xlink:href="#p"/><use transform="matrix(0.05,0,0,0.05,10.950000000000001,0)" xlink:href="#N"/></g><path fill="#c92d39" d="M126-127c33 6 58 20 58 59 0 88-139 92-164 29-3-8-5-16-6-25l32-3c6 27 21 44 54 44 32 0 52-15 52-46 0-38-36-46-79-43v-28c39 1 72-4 72-42 0-27-17-43-46-43-28 0-47 15-49 41l-32-3c6-42 35-63 81-64 48-1 79 21 79 65 0 36-21 52-52 59" id="O"/><g id="m"><use transform="matrix(0.05,0,0,0.05,0,0)" xlink:href="#p"/><use transform="matrix(0.05,0,0,0.05,10.950000000000001,0)" xlink:href="#O"/></g><path fill="#c92d39" d="M155-56V0h-30v-56H8v-25l114-167h33v167h35v25h-35zm-30-156c-27 46-58 90-88 131h88v-131" id="P"/><g id="n"><use transform="matrix(0.05,0,0,0.05,0,0)" xlink:href="#p"/><use transform="matrix(0.05,0,0,0.05,10.950000000000001,0)" xlink:href="#P"/></g><path fill="#c92d39" d="M27 0v-27h64v-190l-56 39v-29l58-41h29v221h61V0H27" id="Q"/><g id="o"><use transform="matrix(0.05,0,0,0.05,0,0)" xlink:href="#p"/><use transform="matrix(0.05,0,0,0.05,10.950000000000001,0)" xlink:href="#Q"/></g></defs></g></svg>